<svg aria-hidden="true" style="width: 0; height: 0; position: absolute; overflow: hidden" version="1.1" xmlns="http://www.w3.org/2000/svg" xmlns:xlink="http://www.w3.org/1999/xlink">
<defs>
<symbol id="phone" viewBox="0 0 20 32">
<path d="M17 0h-14c-1.654 0-3 1.346-3 3v26c0 1.654 1.346 3 3 3h14c1.654 0 3-1.346 3-3v-26c0-1.654-1.346-3-3-3zM3 2h14c0.552 0 1 0.448 1 1v21h-16v-21c0-0.552 0.448-1 1-1zM17 30h-14c-0.552 0-1-0.448-1-1v-3h16v3c0 0.552-0.448 1-1 1z"></path>
<path d="M4.707 27.478c0.391 0.365 0.391 0.956 0 1.321s-1.024 0.365-1.414 0c-0.391-0.365-0.391-0.956 0-1.321s1.024-0.365 1.414 0z"></path>
</symbol>
<symbol id="logo" fill="#213875" viewBox="0 0 32 32">
<path d="M6.716 1.185c-3.062 1.126-5.215 3.694-5.728 6.854-0.316 1.877-0.237 14.736 0.079 16.277 0.711 3.319 3.042 5.788 6.222 6.598 0.988 0.257 2.509 0.296 9.343 0.257 8.020-0.059 8.178-0.059 9.304-0.514 2.153-0.889 4.010-2.746 4.919-4.978 0.435-1.047 0.454-1.304 0.514-9.047 0.040-5.333-0.020-8.336-0.158-9.047-0.533-2.588-2.39-4.879-4.879-6.064l-1.343-0.632-8.593-0.039c-8.138-0.059-8.652-0.039-9.679 0.336zM18.765 6.538c2.509 0.395 4.484 1.837 5.452 4.010 0.474 1.047 0.553 1.442 0.553 2.983-0.020 1.995-0.454 3.398-1.462 4.82-0.632 0.869-2.331 2.094-3.2 2.311l-0.553 0.119v-3.2h-1.778v4.168l-5.63-0.119-0.059-2.825-0.059-2.805h-2.43l5.175-3.259c2.844-1.798 5.215-3.259 5.274-3.259s0.099 0.158 0.099 0.336c0 0.237-1.304 1.146-4.069 2.825-3.299 2.015-3.97 2.489-3.595 2.568 0.454 0.119 0.454 0.178 0.514 2.923l0.059 2.825 3.832-0.119 0.198-3.951 3.457-0.119v1.481c0 1.363 0.020 1.462 0.395 1.363 0.593-0.158 2.153-1.936 2.607-2.983 0.494-1.106 0.711-3.694 0.375-4.879-1.126-4.188-6.38-5.906-11.062-3.635-3.773 1.857-5.926 6.617-4.859 10.746 0.652 2.489 2.074 4.188 4.346 5.274 1.639 0.751 4.286 0.968 6.163 0.494 2.706-0.711 5.116-2.509 6.044-4.543 0.296-0.612 0.553-0.928 0.79-0.928 0.198 0 0.336 0.059 0.296 0.158-0.573 1.304-1.264 2.331-2.232 3.299-2.054 2.035-4.148 2.864-7.309 2.864-1.975 0-3.259-0.277-4.741-1.047-4.286-2.173-6.025-7.704-3.872-12.306 0.81-1.719 1.58-2.667 3.062-3.714 1.462-1.047 2.37-1.442 4.069-1.798 1.62-0.336 2.528-0.356 4.148-0.079z"></path>
</symbol>
<symbol id="buyHouse" viewBox="0 0 32 32">
<path d="M17.581 0.081c-0.106 0.062-10.762 9.944-11.681 10.838-0.281 0.275-0.356 0.506-0.263 0.775 0.031 0.094 0.544 0.613 1.181 1.206 1.050 0.963 1.144 1.037 1.369 1.037 0.181 0 0.3-0.056 0.537-0.25l0.306-0.25 0.019 3.475c0.012 3.087 0 3.494-0.081 3.594-0.338 0.369-1.55 0.744-2.419 0.744h-0.425v-0.706c0-0.8-0.056-0.962-0.375-1.119-0.2-0.1-0.463-0.113-2.688-0.113s-2.487 0.012-2.688 0.113c-0.119 0.056-0.25 0.175-0.294 0.262-0.063 0.125-0.075 1.413-0.063 6.044l0.013 5.894 0.175 0.169 0.169 0.175 5.306 0.038 0.206-0.188 0.206-0.181 0.037-2.275 1.45 0.025c1.944 0.038 1.875 0.019 5.45 1.488 0.969 0.4 1.813 0.65 2.406 0.719 0.65 0.075 2.488-0.169 4.188-0.563 2.762-0.637 6.462-1.894 10.144-3.45 0.913-0.387 1.169-0.525 1.438-0.769 0.781-0.712 1.006-1.906 0.531-2.831-0.194-0.387-0.669-0.85-1.081-1.063-0.313-0.156-0.469-0.194-0.919-0.219-0.531-0.025-0.556-0.019-1.756 0.387-0.675 0.225-1.25 0.413-1.288 0.413-0.050 0-0.069-1.506-0.069-5.031 0-2.769 0.019-5.031 0.038-5.031s0.163 0.113 0.319 0.25c0.231 0.2 0.337 0.25 0.525 0.25 0.281 0 0.569-0.231 1.856-1.475 0.719-0.7 0.762-0.756 0.762-0.981 0-0.213-0.050-0.294-0.356-0.606-0.863-0.869-11.556-10.769-11.688-10.819-0.2-0.075-0.331-0.069-0.5 0.025zM23.244 6.487c2.925 2.731 5.319 4.969 5.319 4.981 0 0.044-0.956 0.938-1.019 0.956-0.044 0.006-2.169-1.944-4.725-4.325-3.069-2.869-4.706-4.356-4.819-4.381-0.094-0.019-0.256 0-0.363 0.044s-2.244 2-4.762 4.35c-2.512 2.35-4.6 4.281-4.644 4.294-0.044 0.019-0.306-0.188-0.594-0.456l-0.513-0.481 5.356-4.987c2.944-2.737 5.375-4.975 5.4-4.969 0.019 0.012 2.431 2.25 5.363 4.975zM21.675 8.738l3.7 3.456-0.012 5.881-0.019 5.881-0.5 0.144c-1.238 0.369-3.813 0.969-4.769 1.119-0.606 0.1-1.344 0.169-1.762 0.175-0.625 0.012-0.75-0.006-0.938-0.113-0.262-0.156-0.544-0.55-0.6-0.831l-0.038-0.2h1.869c1.475 0 1.944-0.019 2.238-0.094 1.131-0.3 2.012-1.238 2.225-2.375 0.188-1.006-0.238-1.7-1.181-1.938-0.194-0.050-2.156-0.275-4.356-0.494-2.2-0.225-4.113-0.419-4.25-0.438-0.675-0.081-1.85 0.125-2.613 0.456-0.169 0.075-0.319 0.131-0.331 0.131s-0.025-0.256-0.025-0.563v-0.563h11.362l0.188-0.156c0.225-0.188 0.281-0.431 0.163-0.706-0.169-0.4 0.069-0.387-6.119-0.387h-5.594v-4.906l3.763-3.512c2.069-1.931 3.794-3.494 3.831-3.469 0.031 0.019 1.731 1.594 3.769 3.5zM15.875 20.425l2.844 0.294 0.019 0.637c0.012 0.575 0.031 0.644 0.175 0.788 0.181 0.181 0.356 0.225 0.631 0.156 0.306-0.081 0.413-0.294 0.444-0.906l0.031-0.531 0.475 0.044c0.738 0.063 1.2 0.144 1.3 0.231 0.069 0.056 0.081 0.144 0.050 0.344-0.087 0.6-0.4 1.038-0.931 1.319l-0.319 0.169-2.413 0.031c-2.644 0.031-2.556 0.019-2.719 0.419-0.144 0.337 0.025 1.313 0.331 1.919 0.363 0.712 1.025 1.181 1.831 1.294 1.631 0.231 6.081-0.738 10.519-2.281 0.806-0.281 1.269-0.413 1.469-0.413 0.7 0.006 1.238 0.656 1.113 1.337-0.075 0.381-0.288 0.613-0.788 0.863-0.256 0.131-0.5 0.238-0.544 0.238s-0.194-0.2-0.331-0.444c-0.381-0.644-0.775-0.781-1.163-0.4-0.212 0.212-0.2 0.525 0.050 0.975 0.113 0.2 0.188 0.375 0.175 0.394-0.050 0.050-2.294 0.906-3.406 1.3-3.3 1.175-6.012 1.869-8.25 2.119-1.050 0.113-1.531-0.006-3.75-0.925-2.681-1.113-3.331-1.269-5.325-1.269h-1.269v-5.606l0.706-0.038c1.294-0.069 2.212-0.413 3.119-1.169 0.912-0.762 1.869-1.156 2.863-1.175 0.119-0.006 1.5 0.125 3.063 0.288zM4.875 25.656v5.094h-1.181l-0.038-6.75-0.169-0.169c-0.131-0.131-0.237-0.175-0.425-0.175s-0.294 0.044-0.425 0.175l-0.169 0.169-0.038 6.75h-1.181v-10.188h3.625v5.094z"></path>
<path d="M12.019 11.356c-0.075 0.012-0.213 0.113-0.3 0.213l-0.156 0.194v1.925c0 1.313 0.025 1.981 0.069 2.088 0.15 0.331 0.3 0.35 2.569 0.35 2.288 0 2.319-0.006 2.5-0.375 0.1-0.194 0.113-0.431 0.113-2.031s-0.012-1.838-0.113-2.031c-0.175-0.35-0.3-0.369-2.544-0.363-1.1 0-2.063 0.019-2.137 0.031zM15.55 13.731l0.012 1.144h-2.75v-2.313l1.363 0.012 1.356 0.019 0.019 1.137z"></path>
<path d="M19.394 11.356c-0.075 0.012-0.212 0.113-0.3 0.213l-0.156 0.194v1.925c0 1.313 0.025 1.981 0.069 2.088 0.15 0.331 0.3 0.35 2.556 0.35 1.756 0 2.1-0.012 2.256-0.1 0.344-0.175 0.369-0.331 0.369-2.319 0-1.588-0.012-1.825-0.113-2.019-0.175-0.35-0.3-0.369-2.544-0.363-1.1 0-2.063 0.019-2.137 0.031zM22.925 13.731l0.012 1.144h-2.75v-2.313l1.363 0.012 1.356 0.019 0.019 1.137z"></path>
<path d="M23.281 17.194c-0.387 0.225-0.462 0.694-0.163 1 0.444 0.444 1.2-0.006 1.006-0.594-0.038-0.119-0.119-0.256-0.181-0.313-0.15-0.137-0.5-0.188-0.663-0.094z"></path>
<path d="M2.837 21.619c-0.188 0.081-0.4 0.369-0.4 0.55 0 0.337 0.3 0.644 0.625 0.644 0.331 0 0.625-0.306 0.625-0.65 0-0.35-0.519-0.681-0.85-0.544z"></path>
</symbol>
<symbol id="soldHouse" viewBox="-1 0 32 32">
<path d="M11.15 4.525l-2.525 2.537v-0.912c0-0.813 0.025-0.9 0.25-0.9 0.213 0 0.25-0.088 0.25-0.5v-0.5h-5.125v0.5c0 0.412 0.037 0.5 0.25 0.5 0.237 0 0.25 0.088 0.25 2.975v2.963l-2.125 2.125c-1.175 1.162-2.125 2.162-2.125 2.213 0 0.063 0.725 0.1 1.625 0.1h1.625v14.375h0.85c1.188 0.012 19.012 0.012 19.438 0.012l0.337-0.012v-4.625h-1v3.625h-5.25v-10.25h-8.25v10.25h-5.125v-13.375h18.625v1.5h1v-1.5h3.313l-6.813-6.813c-3.75-3.75-6.838-6.813-6.875-6.813s-1.2 1.138-2.6 2.525zM19.375 8.938l5.563 5.563h-22.25l5.563-5.563c3.063-3.063 5.563-5.563 5.563-5.563s2.5 2.5 5.563 5.563zM7.625 6.662v1.4l-2.125 2.125v-4.938h2.125v1.412zM16.875 24.375v4.625h-6.25v-9.25h6.25v4.625z"></path>
<path d="M12.688 7.575c-1.037 0.562-1.488 1.362-1.412 2.5 0.088 1.325 0.95 2.25 2.275 2.387 0.713 0.088 1.375-0.137 1.963-0.675 1.213-1.1 1.1-3.025-0.25-3.975-0.438-0.3-0.662-0.375-1.363-0.4-0.6-0.025-0.95 0.013-1.213 0.162zM14.637 8.662c1.075 0.713 0.8 2.275-0.463 2.713-0.9 0.313-1.925-0.5-1.925-1.537 0-0.4 0.088-0.575 0.488-0.975s0.575-0.488 0.975-0.488c0.313 0 0.662 0.113 0.925 0.287z"></path>
<path d="M20.5 21.25v3.125h5.125l0.025 2.837 0.038 2.85h1l0.038-2.85 0.025-2.837h5.125v-6.25h-11.375v3.125zM30.875 21.313v2.063h-9.375v-4.125h9.375v2.063z"></path>
<path d="M22.913 20.4c-0.563 0.275-0.425 0.825 0.275 1.113l0.375 0.163-0.375 0.038c-0.637 0.075-0.738 0.137-0.563 0.35 0.188 0.225 1.012 0.25 1.225 0.038 0.2-0.2 0.188-0.663-0.012-0.825-0.075-0.075-0.3-0.163-0.488-0.212-0.45-0.113-0.3-0.363 0.163-0.262 0.363 0.063 0.6-0.113 0.413-0.3-0.2-0.188-0.725-0.238-1.012-0.1z"></path>
<path d="M24.813 20.387c-1.163 0.65-0.25 2.375 0.938 1.738 0.488-0.262 0.563-1.212 0.1-1.587-0.262-0.225-0.762-0.3-1.038-0.15zM25.65 21.063c0.175 0.4-0.063 0.712-0.512 0.663-0.225-0.025-0.337-0.125-0.363-0.325-0.087-0.625 0.613-0.9 0.875-0.337z"></path>
<path d="M26.65 20.363c-0.113 0.063-0.15 0.375-0.125 0.962l0.038 0.863h0.625c0.475 0 0.625-0.050 0.625-0.188 0-0.125-0.15-0.2-0.4-0.225-0.413-0.038-0.413-0.050-0.413-0.712 0-0.7-0.087-0.863-0.35-0.7z"></path>
<path d="M28.275 20.35c-0.113 0.075-0.15 0.375-0.125 0.975 0.038 0.85 0.050 0.863 0.4 0.9 0.575 0.075 0.938-0.075 1.137-0.475 0.225-0.425 0.15-0.887-0.188-1.188-0.262-0.238-1-0.363-1.225-0.212zM29.137 20.875c0.425 0.238 0.225 0.875-0.288 0.875-0.175 0-0.225-0.1-0.225-0.5 0-0.512 0.1-0.587 0.512-0.375z"></path>
</symbol>
<symbol id="handshake" viewBox="0 -3 57 32">
<path d="M5.679 0.164c-0.335 0.208-0.514 0.497-0.734 1.207-0.479 1.548-2.94 10.253-4.165 14.712-0.89 3.264-0.895 3.292-0.63 3.616 0.318 0.375 1.184 0.676 5.274 1.814 2.68 0.751 4.165 1.126 4.448 1.126 0.647 0 0.982-0.485 1.421-2.051 0.116-0.416 0.231-0.774 0.254-0.797 0.023-0.029 0.3 0.231 0.612 0.572 1.64 1.785 2.293 2.449 3.593 3.685 3.015 2.848 5.643 5.141 7.63 6.643 1.392 1.046 1.871 1.248 2.98 1.248 0.716 0 1.173-0.098 1.675-0.364 0.456-0.243 0.999-0.786 1.265-1.265 0.121-0.22 0.231-0.393 0.243-0.393s0.208 0.144 0.433 0.318c0.849 0.653 1.594 0.913 2.651 0.913 0.734-0.006 1.017-0.081 1.687-0.456 0.745-0.422 1.086-0.809 1.404-1.594l0.191-0.479 0.716-0.035c0.797-0.040 1.294-0.156 1.802-0.404 1.103-0.549 1.733-1.392 1.975-2.646 0.046-0.237 0.121-0.479 0.173-0.531 0.052-0.058 0.225-0.133 0.387-0.168 0.167-0.040 0.56-0.196 0.884-0.347 0.93-0.451 1.473-1.051 1.877-2.085l0.191-0.497 0.612-0.069c0.97-0.104 0.907-0.121 1.109 0.323 0.231 0.514 0.451 0.78 0.739 0.913 0.237 0.104 0.248 0.104 0.826-0.023 1.571-0.352 7.469-2.010 8.427-2.374 0.474-0.173 0.687-0.341 0.849-0.653 0.133-0.266 0.139-0.3 0.075-0.612-0.306-1.473-4.263-15.474-5.020-17.756-0.329-0.988-0.41-1.080-0.993-1.080-0.497 0-1.704 0.295-4.684 1.149-2.732 0.78-4.667 1.369-4.84 1.484-0.069 0.046-0.208 0.225-0.306 0.393-0.092 0.173-0.231 0.352-0.306 0.399-0.069 0.046-0.416 0.179-0.762 0.289l-0.635 0.196-0.866-0.399c-3.281-1.519-5.666-2.316-7.763-2.588-0.803-0.104-2.518-0.139-2.963-0.064-0.641 0.11-1.716 0.439-2.64 0.814-1.022 0.404-1.196 0.439-2.975 0.52-1.825 0.087-3.691 0.214-4.806 0.323l-0.942 0.098-0.306-0.289c-0.168-0.162-0.393-0.318-0.503-0.352-1.103-0.347-3.495-1.034-6.094-1.744-2.929-0.803-3.142-0.843-3.471-0.641zM9.064 3.237c0.907 0.254 2.224 0.63 2.934 0.843 1.178 0.347 1.282 0.393 1.282 0.508 0 0.173-0.543 2.149-2.056 7.509-0.687 2.414-1.438 5.077-1.675 5.921-0.462 1.64-0.514 1.814-0.63 1.906-0.069 0.058-1.9-0.416-4.91-1.282l-1.271-0.364 0.012-0.202c0.006-0.11 0.237-1.005 0.508-1.981 0.676-2.438 3.466-12.321 3.645-12.91l0.144-0.479 0.185 0.040c0.104 0.017 0.924 0.243 1.831 0.491zM49.607 3.329c0.075 0.191 2.911 10.218 3.547 12.552 0.606 2.218 0.745 2.784 0.693 2.836-0.133 0.127-6.111 1.779-6.181 1.704-0.11-0.11-4.349-15.116-4.349-15.399 0-0.075 0.433-0.22 2.039-0.682 1.115-0.323 2.478-0.722 3.015-0.878 0.543-0.156 1.022-0.283 1.074-0.283 0.052-0.006 0.127 0.064 0.162 0.15zM30.494 3.919c1.75 0.306 3.408 0.872 6.036 2.068 1.831 0.832 2.039 0.907 2.368 0.901 0.162-0.006 0.653-0.11 1.097-0.225 0.838-0.22 1.184-0.289 1.184-0.237 0 0.023 0.144 0.514 0.318 1.103 0.612 2.091 2.432 8.653 3.027 10.952 0.162 0.607 0.214 0.913 0.173 0.953-0.029 0.029-0.266 0.069-0.514 0.075l-0.456 0.023-0.451-0.456c-0.705-0.71-2.27-2.033-6.689-5.649-4.557-3.726-5.718-4.633-6.36-4.956-0.491-0.248-0.63-0.248-1.3-0.017-0.814 0.277-1.23 0.364-2.045 0.433-0.381 0.029-0.757 0.081-0.838 0.11-0.185 0.069-0.41 0.318-1.034 1.138-0.641 0.832-1.825 2.016-2.31 2.293-0.705 0.41-1.23 0.416-1.635 0.023-0.289-0.283-0.41-0.572-0.439-1.074-0.064-1.051 0.537-2.703 1.456-4.043 0.612-0.89 1.669-1.86 2.651-2.438 0.861-0.503 2.056-0.953 2.9-1.086 0.543-0.081 2.103-0.023 2.859 0.11zM20.651 5.236c-0.012 0.029-0.248 0.381-0.52 0.786-1.294 1.935-1.877 3.835-1.71 5.58 0.075 0.803 0.179 1.196 0.468 1.791 0.682 1.386 2.189 2.039 3.691 1.594 1.225-0.364 2.565-1.38 3.986-3.021l0.549-0.635 1.109-0.237c0.942-0.202 1.132-0.225 1.294-0.168 0.37 0.127 1.311 0.872 8.474 6.712 2.466 2.010 3.547 2.923 3.575 3.021 0.017 0.081 0.035 0.318 0.040 0.531 0.006 0.341-0.017 0.427-0.167 0.67-0.237 0.387-0.762 0.791-1.028 0.791-0.439 0-0.762-0.237-3.749-2.732-2.617-2.189-2.778-2.305-3.171-2.305-0.503 0-0.924 0.26-1.155 0.705-0.243 0.474-0.11 0.82 0.572 1.484 0.277 0.271 1.346 1.213 2.38 2.085 2.842 2.403 2.946 2.507 2.946 2.94 0 0.329-0.156 0.635-0.508 1.005-0.514 0.531-0.895 0.618-1.409 0.312-0.139-0.081-1.3-1.022-2.588-2.097-2.686-2.235-3.287-2.715-3.61-2.859-0.762-0.352-1.588 0.196-1.588 1.057 0 0.543 0.012 0.555 2.542 2.669 2.339 1.952 2.657 2.276 2.657 2.709 0 0.462-0.514 1.196-0.918 1.317-0.41 0.121-0.826-0.144-2.605-1.675-3.073-2.651-3.703-3.183-3.876-3.275-0.705-0.37-1.687 0.266-1.692 1.097-0.006 0.375 0.017 0.41 1.479 1.918 1.201 1.242 1.375 1.502 1.265 1.871-0.035 0.127-0.196 0.364-0.375 0.555l-0.312 0.329-0.3-0.029c-0.375-0.035-0.826-0.341-2.345-1.56-3.177-2.547-5.69-4.771-7.936-7.030-1.877-1.883-2.946-3.165-3.443-4.136l-0.243-0.462 1.317-4.592c1.617-5.672 1.744-6.082 1.935-6.238 0.081-0.069 1.259-0.22 2.888-0.37 0.543-0.052 1.074-0.098 1.184-0.11 0.404-0.040 0.93-0.040 0.901 0z"></path>
</symbol>
<symbol id="advice" viewBox="0 0 32 32">
<path d="M10.813 0.087c-0.956 0.206-1.688 0.969-1.869 1.944-0.037 0.2-0.069 1.038-0.069 1.862v1.494l0.144-0.037c0.075-0.019 0.356-0.056 0.625-0.081l0.481-0.037v-1.556c0-1.4 0.012-1.575 0.119-1.788 0.137-0.262 0.262-0.387 0.569-0.55 0.213-0.113 0.556-0.119 9.563-0.119h9.344l0.25 0.131c0.288 0.156 0.413 0.281 0.556 0.569 0.094 0.188 0.1 0.594 0.087 4.169l-0.019 3.963-0.194 0.244c-0.419 0.512-0.169 0.481-4.206 0.519l-3.587 0.031-2.725 2.813-0.006-1.269v-1.269l-0.163-0.15-0.169-0.156h-3.106v0.169c0 0.1-0.019 0.363-0.044 0.594l-0.038 0.425h2.331v3.444l0.163 0.15c0.125 0.113 0.238 0.156 0.425 0.156 0.244 0 0.288-0.031 0.781-0.544 0.288-0.306 1.1-1.144 1.806-1.875l1.281-1.325 3.413-0.019c3.413-0.019 3.413-0.019 3.775-0.162 0.738-0.3 1.356-1.075 1.488-1.875 0.081-0.512 0.075-7.463-0.012-7.919-0.188-1.006-0.962-1.781-1.956-1.962-0.556-0.1-18.569-0.087-19.038 0.019z"></path>
<path d="M9.338 6.094c-0.813 0.175-1.444 0.525-2.494 1.388-1.244 1.025-1.506 1.55-1.494 3.019 0.006 0.581 0.044 1.037 0.131 1.45l0.125 0.606-0.213-0.006c-0.125-0.006-0.256 0.037-0.319 0.094-0.125 0.131-0.181 0.819-0.081 1.119 0.094 0.287 0.813 0.988 1.063 1.044 0.175 0.031 0.225 0.1 0.469 0.65 0.719 1.594 1.819 2.812 2.913 3.213 1.75 0.65 3.55-0.531 4.787-3.144 0.294-0.606 0.363-0.713 0.488-0.713 0.231 0 1.012-0.781 1.094-1.094 0.094-0.344 0.088-0.681-0.019-0.938-0.088-0.2-0.119-0.219-0.356-0.219s-0.256-0.012-0.219-0.144c0.275-1.006 0.325-2.5 0.106-3.169-0.219-0.694-0.444-0.981-1.294-1.694-1.063-0.894-1.481-1.144-2.375-1.4-0.438-0.125-0.669-0.156-1.238-0.15-0.381 0-0.863 0.044-1.075 0.088z"></path>
<path d="M5.594 20.262c-0.306 0.1-0.912 0.294-1.344 0.431-1.331 0.419-2.106 0.894-2.538 1.538-0.762 1.144-1.306 4.125-1.556 8.456-0.031 0.587-0.025 0.675 0.087 0.863 0.075 0.113 0.219 0.256 0.331 0.325 0.206 0.125 0.338 0.125 9.787 0.125 10.406 0 9.844 0.019 10.125-0.344 0.119-0.15 0.137-0.25 0.137-0.75 0-0.738-0.156-2.719-0.313-3.938-0.244-1.894-0.544-3.231-0.95-4.212-0.381-0.919-1.231-1.556-2.706-2.025-1.256-0.406-2.169-0.675-2.188-0.656-0.012 0.012-0.15 0.519-0.306 1.131-0.4 1.531-1.037 3.625-1.419 4.65-0.331 0.887-0.725 1.825-0.8 1.913-0.025 0.025-0.25-1.087-0.5-2.469l-0.463-2.512 0.106-0.444c0.056-0.238 0.1-0.456 0.1-0.475 0-0.025-0.181-0.156-0.4-0.294l-0.4-0.25-0.381 0.25c-0.206 0.137-0.381 0.3-0.381 0.356s0.044 0.256 0.094 0.444c0.094 0.344 0.094 0.363-0.356 2.844-0.244 1.375-0.456 2.512-0.469 2.531-0.044 0.050-0.131-0.125-0.463-0.906-0.544-1.281-1.219-3.438-1.95-6.188-0.094-0.356-0.181-0.563-0.237-0.569-0.050-0.006-0.338 0.075-0.65 0.175z"></path>
</symbol>
<symbol id="care" viewBox="0 0 32 32">
<path d="M17.5 1.094c-0.363 0.044-1.375 0.194-2.25 0.337-0.875 0.137-1.844 0.281-2.144 0.319s-0.7 0.125-0.887 0.194c-0.313 0.119-2.281 1.394-3.031 1.962-0.556 0.431-0.863 0.756-0.938 1.013-0.106 0.344-0.063 0.531 0.137 0.631l0.175 0.081-0.188 0.256c-0.225 0.306-0.244 0.588-0.050 0.831 0.313 0.394 0.963 0.506 1.681 0.281 0.469-0.144 0.863-0.381 1.425-0.862 0.45-0.381 0.963-0.644 1.537-0.794 0.637-0.162 2.181-0.3 2.969-0.256 0.831 0.037 1.288 0.156 2.337 0.594l0.75 0.306-0.313 0.050c-0.344 0.050-3.481-0.069-4.6-0.175-0.65-0.063-0.762-0.056-1.012 0.037-0.356 0.138-0.681 0.506-0.856 0.969-0.106 0.294-0.119 0.388-0.063 0.581 0.1 0.319 0.344 0.594 0.706 0.775 0.637 0.325 2.25 0.644 3.862 0.775 1.25 0.094 1.262 0.1 2.313 0.594 1.494 0.713 2.3 0.938 3.55 1.012 1.125 0.063 3.231-0.219 4.438-0.6 0.694-0.213 0.637 0.025 0.637-2.8 0-1.475-0.025-2.513-0.063-2.575-0.081-0.156-0.194-0.2-0.819-0.287-0.637-0.094-1.056-0.263-3.438-1.413-1.819-0.875-3.144-1.475-3.806-1.725-0.506-0.194-1.163-0.231-2.063-0.113z"></path>
<path d="M28.556 3.431l-0.15 0.119-0.019 3.494c-0.006 1.919 0 3.55 0.019 3.625 0.075 0.313 0.156 0.331 1.269 0.331 0.575 0 1.075-0.025 1.113-0.050 0.2-0.131 0.212-0.319 0.212-3.825v-3.506l-0.156-0.15c-0.15-0.15-0.175-0.156-1.144-0.156-0.887 0-1.012 0.013-1.144 0.119z"></path>
<path d="M12.988 9.456c-0.325 0.512-0.438 0.994-0.475 1.981-0.025 0.85-0.037 0.919-0.181 1.094-0.15 0.175-0.156 0.213-0.131 0.844 0.025 0.569 0.050 0.713 0.213 1.063 0.106 0.225 0.325 0.569 0.481 0.762 0.162 0.2 0.294 0.394 0.294 0.438 0 0.037 0.113 0.3 0.244 0.581 0.675 1.381 2.069 2.081 3.325 1.656 0.488-0.163 0.819-0.381 1.194-0.762 0.306-0.319 0.663-0.9 0.806-1.331 0.050-0.137 0.206-0.4 0.35-0.581 0.531-0.656 0.725-1.225 0.694-2.012-0.012-0.463-0.044-0.575-0.15-0.7-0.119-0.125-0.137-0.238-0.169-0.925-0.012-0.431-0.044-0.825-0.069-0.881-0.050-0.119-0.969-0.556-1.469-0.706-0.188-0.056-0.975-0.169-1.75-0.256-1.356-0.156-2.444-0.338-2.787-0.469-0.231-0.088-0.231-0.088-0.419 0.206z"></path>
<path d="M12.55 17.219c-2.294 0.931-2.906 1.294-3.463 2.050-0.231 0.313-0.713 1.206-0.713 1.325 0 0.019 0.3 0.031 0.662 0.031 1.387 0 2.606 0.294 3.931 0.944 0.938 0.462 1.425 0.581 3.025 0.744 2.331 0.231 3.444 0.569 4.094 1.244 0.188 0.194 0.281 0.244 0.406 0.225 0.087-0.019 0.444-0.075 0.788-0.131 0.831-0.131 1.925-0.419 2.375-0.613l0.363-0.163-0.038-0.613c-0.081-1.375-0.75-2.856-1.631-3.587-0.413-0.35-1.462-0.881-2.8-1.419l-0.794-0.319-0.488 0.488c-1.394 1.406-3.144 1.406-4.537 0-0.269-0.269-0.494-0.488-0.5-0.488-0.006 0.006-0.313 0.131-0.681 0.281z"></path>
<path d="M1.288 21.019c-0.081 0.025-0.175 0.119-0.219 0.206-0.050 0.113-0.069 1.163-0.069 3.656v3.5l0.156 0.156c0.156 0.156 0.163 0.156 1.188 0.137 0.888-0.019 1.044-0.031 1.138-0.131 0.106-0.1 0.112-0.35 0.131-3.625 0.019-3.669 0.006-3.813-0.25-3.894-0.188-0.056-1.9-0.063-2.075-0.006z"></path>
<path d="M7.55 21.462c-0.781 0.1-2.075 0.363-2.619 0.538-0.669 0.206-0.619-0.025-0.619 2.794 0 1.475 0.025 2.512 0.063 2.575 0.081 0.156 0.194 0.2 0.819 0.288 0.631 0.094 1.037 0.256 3.431 1.406 2.275 1.094 3.725 1.731 4.206 1.85 0.569 0.15 1.287 0.081 4.325-0.413 0.619-0.1 1.381-0.212 1.688-0.25 0.313-0.038 0.7-0.113 0.869-0.169 0.331-0.106 2.863-1.769 3.413-2.238 0.494-0.425 0.65-0.663 0.65-1.019 0.006-0.256-0.012-0.3-0.169-0.375l-0.175-0.081 0.194-0.262c0.488-0.669-0.087-1.294-1.125-1.219-0.575 0.044-1.163 0.331-1.844 0.894-0.531 0.444-0.8 0.606-1.331 0.788-0.575 0.2-1.706 0.331-2.856 0.331-1.231 0.006-1.406-0.031-2.662-0.55l-0.831-0.337 0.306-0.050c0.35-0.050 3.481 0.069 4.606 0.175 0.65 0.063 0.762 0.056 1.012-0.038 0.356-0.137 0.681-0.506 0.856-0.969 0.106-0.294 0.119-0.387 0.063-0.581-0.156-0.519-0.6-0.819-1.587-1.081-0.681-0.181-1.925-0.387-2.669-0.438-1.456-0.1-1.588-0.131-2.625-0.625-1.613-0.762-2.375-0.969-3.813-1.006-0.544-0.012-1.175 0.012-1.575 0.063z"></path>
</symbol>
<symbol id="facebook" viewBox="0 0 32 32">
<path d="M29 0h-26c-1.65 0-3 1.35-3 3v26c0 1.65 1.35 3 3 3h13v-14h-4v-4h4v-2c0-3.306 2.694-6 6-6h4v4h-4c-1.1 0-2 0.9-2 2v2h6l-1 4h-5v14h9c1.65 0 3-1.35 3-3v-26c0-1.65-1.35-3-3-3z"></path>
</symbol>
<symbol id="instagram" viewBox="0 0 32 32">
<path d="M16 2.881c4.275 0 4.781 0.019 6.462 0.094 1.563 0.069 2.406 0.331 2.969 0.55 0.744 0.288 1.281 0.638 1.837 1.194 0.563 0.563 0.906 1.094 1.2 1.838 0.219 0.563 0.481 1.412 0.55 2.969 0.075 1.688 0.094 2.194 0.094 6.463s-0.019 4.781-0.094 6.463c-0.069 1.563-0.331 2.406-0.55 2.969-0.288 0.744-0.637 1.281-1.194 1.837-0.563 0.563-1.094 0.906-1.837 1.2-0.563 0.219-1.413 0.481-2.969 0.55-1.688 0.075-2.194 0.094-6.463 0.094s-4.781-0.019-6.463-0.094c-1.563-0.069-2.406-0.331-2.969-0.55-0.744-0.288-1.281-0.637-1.838-1.194-0.563-0.563-0.906-1.094-1.2-1.837-0.219-0.563-0.481-1.413-0.55-2.969-0.075-1.688-0.094-2.194-0.094-6.463s0.019-4.781 0.094-6.463c0.069-1.563 0.331-2.406 0.55-2.969 0.288-0.744 0.638-1.281 1.194-1.838 0.563-0.563 1.094-0.906 1.838-1.2 0.563-0.219 1.412-0.481 2.969-0.55 1.681-0.075 2.188-0.094 6.463-0.094zM16 0c-4.344 0-4.887 0.019-6.594 0.094-1.7 0.075-2.869 0.35-3.881 0.744-1.056 0.412-1.95 0.956-2.837 1.85-0.894 0.888-1.438 1.781-1.85 2.831-0.394 1.019-0.669 2.181-0.744 3.881-0.075 1.713-0.094 2.256-0.094 6.6s0.019 4.887 0.094 6.594c0.075 1.7 0.35 2.869 0.744 3.881 0.413 1.056 0.956 1.95 1.85 2.837 0.887 0.887 1.781 1.438 2.831 1.844 1.019 0.394 2.181 0.669 3.881 0.744 1.706 0.075 2.25 0.094 6.594 0.094s4.888-0.019 6.594-0.094c1.7-0.075 2.869-0.35 3.881-0.744 1.050-0.406 1.944-0.956 2.831-1.844s1.438-1.781 1.844-2.831c0.394-1.019 0.669-2.181 0.744-3.881 0.075-1.706 0.094-2.25 0.094-6.594s-0.019-4.887-0.094-6.594c-0.075-1.7-0.35-2.869-0.744-3.881-0.394-1.063-0.938-1.956-1.831-2.844-0.887-0.887-1.781-1.438-2.831-1.844-1.019-0.394-2.181-0.669-3.881-0.744-1.712-0.081-2.256-0.1-6.6-0.1v0z"></path>
<path d="M16 7.781c-4.537 0-8.219 3.681-8.219 8.219s3.681 8.219 8.219 8.219 8.219-3.681 8.219-8.219c0-4.537-3.681-8.219-8.219-8.219zM16 21.331c-2.944 0-5.331-2.387-5.331-5.331s2.387-5.331 5.331-5.331c2.944 0 5.331 2.387 5.331 5.331s-2.387 5.331-5.331 5.331z"></path>
<path d="M26.462 7.456c0 1.060-0.859 1.919-1.919 1.919s-1.919-0.859-1.919-1.919c0-1.060 0.859-1.919 1.919-1.919s1.919 0.859 1.919 1.919z"></path>
</symbol>
<symbol id="telegram" viewBox="0 0 32 32">
<path d="M16 0c-8.838 0-16 7.162-16 16s7.162 16 16 16 16-7.163 16-16-7.163-16-16-16zM23.863 10.969l-2.625 12.369c-0.181 0.881-0.712 1.087-1.45 0.681l-4-2.956-1.919 1.869c-0.225 0.219-0.4 0.4-0.8 0.4-0.519 0-0.431-0.194-0.606-0.688l-1.363-4.475-3.956-1.231c-0.856-0.262-0.862-0.85 0.194-1.269l15.412-5.95c0.7-0.319 1.381 0.169 1.113 1.25z"></path>
</symbol>
<symbol id="sampson" viewBox="0 0 32 32">
<path d="M2.064 12.881c-0.478 0.132-0.807 0.372-0.983 0.718-0.325 0.645-0.064 1.286 0.602 1.491 0.073 0.021 0.547 0.077 1.055 0.12 0.974 0.085 1.162 0.128 1.376 0.333 0.201 0.188 0.231 0.521 0.081 0.807-0.090 0.167-0.393 0.384-0.641 0.461-0.543 0.175-1.461 0.064-1.829-0.214-0.167-0.128-0.312-0.402-0.316-0.585 0-0.214-0.038-0.248-0.261-0.248h-0.209v0.162c0 0.338 0.12 0.611 0.376 0.863 0.359 0.355 0.859 0.513 1.589 0.513 0.816-0.004 1.44-0.299 1.718-0.825 0.077-0.141 0.098-0.252 0.098-0.521 0-0.372-0.051-0.508-0.261-0.722-0.282-0.282-0.521-0.342-1.666-0.431-0.893-0.064-1.102-0.12-1.277-0.329-0.081-0.098-0.107-0.175-0.107-0.338 0-0.265 0.073-0.414 0.303-0.611 0.273-0.231 0.534-0.303 1.085-0.303 0.449 0 0.487 0.009 0.76 0.141 0.338 0.167 0.5 0.372 0.534 0.671l0.021 0.192h0.466l-0.030-0.226c-0.060-0.5-0.355-0.859-0.863-1.060-0.32-0.124-1.269-0.158-1.623-0.060z"></path>
<path d="M17.653 12.881c-0.124 0.034-0.286 0.094-0.363 0.132-0.735 0.376-0.991 1.273-0.508 1.782 0.261 0.273 0.526 0.342 1.726 0.431 0.662 0.051 0.786 0.073 0.983 0.167 0.282 0.137 0.376 0.286 0.376 0.594 0 0.654-0.709 1.013-1.752 0.889-0.675-0.081-1.025-0.35-1.119-0.846l-0.051-0.265h-0.41v0.192c0 0.449 0.295 0.88 0.756 1.111 0.423 0.209 1.183 0.291 1.747 0.188 1.141-0.209 1.688-1.316 0.995-2.012-0.278-0.278-0.56-0.355-1.619-0.436-0.901-0.068-1.068-0.107-1.252-0.273-0.222-0.209-0.235-0.513-0.030-0.842 0.329-0.534 1.662-0.658 2.247-0.214 0.162 0.124 0.316 0.423 0.316 0.615v0.137l0.449-0.026-0.013-0.192c-0.038-0.461-0.376-0.889-0.854-1.072-0.316-0.124-1.269-0.158-1.623-0.060z"></path>
<path d="M22.785 12.881c-0.778 0.209-1.38 0.799-1.572 1.538-0.081 0.316-0.081 0.953 0 1.256 0.214 0.803 0.842 1.389 1.696 1.568 0.367 0.081 1.008 0.060 1.329-0.043 0.983-0.312 1.564-1.115 1.568-2.162 0-1.051-0.645-1.893-1.653-2.153-0.325-0.085-1.060-0.085-1.367-0.004zM23.887 13.244c0.547 0.103 1.060 0.483 1.282 0.953 0.444 0.948 0.094 2.055-0.786 2.487-1.307 0.637-2.807-0.226-2.807-1.615 0-1.23 1.051-2.059 2.311-1.824z"></path>
<path d="M6.4 14.919c-0.572 1.132-1.064 2.111-1.094 2.179l-0.051 0.124 0.487-0.026 0.235-0.457 0.239-0.461h2.649l0.235 0.461 0.235 0.457h0.235c0.137 0 0.231-0.017 0.226-0.043s-0.491-1-1.081-2.17c-0.961-1.897-1.085-2.123-1.175-2.123s-0.214 0.222-1.141 2.059zM8.147 14.838c0.265 0.534 0.483 0.983 0.483 0.991 0 0.013-0.491 0.021-1.089 0.021s-1.089-0.009-1.089-0.021c0-0.013 0.209-0.44 0.461-0.953 0.256-0.508 0.5-1.021 0.547-1.141l0.077-0.209 0.064 0.167c0.034 0.094 0.282 0.611 0.547 1.145z"></path>
<path d="M10.617 12.911c-0.013 0.030-0.017 1.008-0.013 2.17l0.013 2.115h0.384l0.043-3.486 0.231 0.355c0.363 0.564 1.717 2.469 1.752 2.469 0.038 0 1.606-2.222 1.854-2.627l0.158-0.252v3.567l0.406-0.026v-4.315l-0.137-0.013c-0.090-0.009-0.158 0.013-0.214 0.073-0.043 0.047-0.517 0.718-1.060 1.495-0.538 0.778-0.995 1.406-1.013 1.401s-0.474-0.645-1.017-1.418c-0.543-0.778-1.021-1.444-1.055-1.487-0.077-0.085-0.303-0.098-0.333-0.021z"></path>
<path d="M26.903 12.89c-0.017 0.013-0.030 0.995-0.030 2.179v2.153l0.406-0.026 0.043-3.58 0.145 0.167c0.081 0.090 0.859 0.901 1.73 1.803 1.542 1.594 1.585 1.636 1.735 1.624l0.15-0.013 0.013-2.072c0.004-1.141 0-2.115-0.013-2.17-0.017-0.077-0.051-0.094-0.184-0.094-0.090 0-0.184 0.021-0.214 0.051-0.038 0.038-0.051 0.5-0.051 1.816v1.769l-0.222-0.252c-0.124-0.137-0.91-0.957-1.743-1.816-1.226-1.273-1.538-1.568-1.628-1.568-0.060 0-0.124 0.013-0.137 0.030z"></path>
<path d="M10.514 18.034c-0.141 0.073-0.205 0.141-0.269 0.286-0.209 0.47 0.081 0.906 0.598 0.906 0.423 0 0.666-0.231 0.666-0.628 0-0.508-0.521-0.803-0.995-0.564zM11.223 18.256c0.218 0.218 0.154 0.637-0.115 0.778-0.496 0.256-1.013-0.325-0.658-0.743 0.192-0.231 0.564-0.248 0.773-0.034z"></path>
<path d="M25.784 18.004c-0.252 0.107-0.333 0.325-0.192 0.504 0.073 0.094 0.132 0.115 0.376 0.141 0.38 0.034 0.479 0.077 0.479 0.209 0 0.295-0.679 0.329-0.752 0.038-0.017-0.060-0.060-0.098-0.107-0.098-0.094 0-0.103 0.038-0.030 0.192 0.073 0.162 0.248 0.235 0.547 0.235 0.235 0 0.278-0.013 0.389-0.124 0.265-0.265 0.111-0.534-0.338-0.581-0.355-0.034-0.457-0.073-0.47-0.179-0.038-0.265 0.637-0.333 0.701-0.073 0.026 0.098 0.188 0.154 0.188 0.064 0-0.303-0.436-0.483-0.79-0.329z"></path>
<path d="M5.682 18.606c0 0.521 0.009 0.619 0.064 0.619 0.047 0 0.064-0.047 0.064-0.167v-0.167l0.299-0.017c0.355-0.017 0.513-0.115 0.572-0.346 0.051-0.197-0.030-0.397-0.192-0.479-0.077-0.043-0.248-0.064-0.466-0.064h-0.342v0.619zM6.379 18.162c0.124 0.068 0.158 0.12 0.158 0.261 0 0.205-0.132 0.291-0.449 0.291h-0.278v-0.598h0.239c0.128 0 0.278 0.021 0.329 0.047z"></path>
<path d="M7.947 18.61c0 0.568 0.004 0.619 0.077 0.607 0.056-0.009 0.077-0.064 0.085-0.218l0.013-0.201h0.179c0.162 0 0.197 0.017 0.372 0.218 0.132 0.145 0.222 0.214 0.273 0.205 0.068-0.017 0.056-0.047-0.090-0.235l-0.171-0.214 0.12-0.073c0.167-0.094 0.226-0.256 0.162-0.444-0.068-0.205-0.218-0.269-0.658-0.269h-0.363v0.624zM8.686 18.162c0.179 0.098 0.209 0.244 0.073 0.38-0.068 0.068-0.141 0.085-0.363 0.085h-0.278v-0.513h0.239c0.128 0 0.278 0.021 0.329 0.047z"></path>
<path d="M12.783 18.593c0.013 0.543 0.021 0.611 0.090 0.624 0.060 0.013 0.073-0.017 0.073-0.158v-0.175l0.226-0.004c0.342 0 0.508-0.077 0.598-0.261 0.103-0.205 0.064-0.38-0.107-0.526-0.115-0.098-0.162-0.107-0.508-0.107h-0.384l0.013 0.607zM13.565 18.222c0.128 0.124 0.137 0.291 0.021 0.406-0.068 0.068-0.141 0.085-0.363 0.085h-0.278v-0.598h0.256c0.218 0 0.278 0.017 0.363 0.107z"></path>
<path d="M15.081 18.606v0.619h0.491c0.41 0 0.491-0.013 0.491-0.064s-0.077-0.064-0.427-0.064h-0.427v-0.47h0.384c0.312 0 0.384-0.013 0.384-0.064s-0.073-0.064-0.384-0.064h-0.384v-0.384h0.406c0.333 0 0.406-0.013 0.406-0.064s-0.081-0.064-0.47-0.064h-0.47v0.619z"></path>
<path d="M17.303 18.606c0 0.59 0.004 0.619 0.085 0.619 0.073 0 0.085-0.030 0.085-0.214v-0.214h0.205c0.188 0.004 0.209 0.017 0.363 0.214 0.098 0.124 0.197 0.214 0.248 0.214 0.111 0 0.103-0.026-0.073-0.239l-0.15-0.188 0.158-0.15c0.141-0.132 0.154-0.167 0.132-0.308-0.017-0.098-0.073-0.201-0.137-0.261-0.098-0.081-0.158-0.094-0.517-0.094h-0.402v0.619zM18.115 18.2c0.047 0.047 0.085 0.132 0.085 0.188 0 0.162-0.15 0.239-0.457 0.239h-0.269v-0.513h0.278c0.222 0 0.295 0.017 0.363 0.085z"></path>
<path d="M19.439 18.051c0 0.051 0.056 0.064 0.256 0.064h0.256v0.555c0 0.526 0.004 0.555 0.085 0.555s0.085-0.030 0.085-0.555v-0.555h0.256c0.201 0 0.256-0.013 0.256-0.064 0-0.056-0.094-0.064-0.598-0.064s-0.598 0.009-0.598 0.064z"></path>
<path d="M21.84 18.593c0.013 0.543 0.021 0.611 0.090 0.624s0.073-0.038 0.073-0.607c0-0.598-0.004-0.624-0.085-0.624-0.085 0-0.085 0.021-0.077 0.607z"></path>
<path d="M23.37 18.606v0.619h0.491c0.41 0 0.491-0.013 0.491-0.064s-0.077-0.064-0.427-0.064h-0.427v-0.47h0.384c0.312 0 0.384-0.013 0.384-0.064s-0.073-0.064-0.384-0.064h-0.384v-0.384h0.406c0.333 0 0.406-0.013 0.406-0.064s-0.081-0.064-0.47-0.064h-0.47v0.619z"></path>
</symbol>
<symbol id="experience" viewBox="0 0 32 32">
<path d="M26.347 0.509c-0.279 0.273-1.504 1.494-2.721 2.712l-2.213 2.213-0.52-0.13c-1.006-0.25-1.865-0.414-2.729-0.522-0.595-0.075-1.272-0.095-2.88-0.085-1.323 0.009-1.629 0.019-2.127 0.077-1.582 0.184-3.235 0.593-4.884 1.21-0.636 0.237-1.174 0.482-2.367 1.077-0.825 0.412-1.126 0.573-1.408 0.754l-0.173 0.111 0.006 5.842c0.004 3.966 0.012 5.957 0.023 6.2 0.041 0.902 0.073 1.092 0.298 1.74l0.126 0.358-4.78 4.782 1.072 0.194c2.181 0.396 3.209 0.591 3.231 0.613 0.044 0.044 0.251 1.073 0.589 2.915 0.14 0.77 0.256 1.405 0.256 1.409 0 0.006 0.725-0.713 1.612-1.596 1.975-1.969 2.659-2.63 2.829-2.728l0.042-0.025 0.503 0.352c1.547 1.083 2.829 1.836 4.831 2.837l0.687 0.344 0.789-0.398c0.996-0.503 1.55-0.801 2.308-1.248 3.308-1.944 5.717-4.074 7.1-6.274 0.449-0.713 0.713-1.32 0.984-2.253l0.095-0.33v-5.217l0.001-5.217 1.593-1.601c2.805-2.82 3.45-3.489 3.387-3.525-0.023-0.013-0.431-0.091-1.905-0.364-1.139-0.21-2.171-0.412-2.254-0.44-0.041-0.013-0.047-0.023-0.067-0.113-0.051-0.224-0.251-1.259-0.383-1.969-0.285-1.547-0.408-2.166-0.431-2.191-0.007-0.007-0.228 0.197-0.522 0.485zM16.387 5.657c0.86 0.025 1.547 0.058 1.849 0.089 0.332 0.034 1.136 0.183 1.694 0.314 0.864 0.203 1.905 0.529 2.607 0.816 0.547 0.222 1.332 0.585 2.175 1.003 0.689 0.341 0.898 0.453 1.209 0.648l0.216 0.134v4.298c-0.001 4.279-0.015 6.488-0.044 7.017-0.038 0.715-0.092 1.044-0.221 1.374-0.077 0.202-0.405 0.874-0.553 1.139-1.016 1.82-2.745 3.546-5.198 5.191-1.159 0.778-2.302 1.434-3.698 2.126-0.538 0.266-0.716 0.344-0.789 0.344-0.175-0.001-1.976-0.922-2.975-1.523-1.095-0.659-2.485-1.604-3.172-2.158-1.525-1.228-2.699-2.532-3.478-3.861-0.39-0.665-0.737-1.538-0.813-2.045-0.054-0.365-0.056-0.525-0.061-6.274l-0.006-5.63 0.165-0.102c0.231-0.143 0.424-0.253 0.779-0.443 0.373-0.197 1.362-0.689 1.674-0.83 1.281-0.58 2.913-1.095 4.393-1.383 0.715-0.139 1.424-0.235 1.893-0.257 0.298-0.015 1.646-0.006 2.354 0.015z"></path>
<path d="M15.152 7.121c-0.118 0.237-0.216 0.431-0.219 0.434-0.001 0.003-0.124 0.018-0.272 0.032-0.491 0.053-0.613 0.073-0.613 0.107 0 0.039 0.171 0.222 0.398 0.427 0.189 0.17 0.237 0.221 0.234 0.246-0.003 0.018-0.028 0.159-0.056 0.314-0.064 0.351-0.094 0.577-0.080 0.592 0.013 0.013 0.21-0.088 0.56-0.285 0.127-0.070 0.238-0.129 0.247-0.129 0.010 0 0.212 0.099 0.449 0.219 0.37 0.189 0.43 0.215 0.422 0.187-0.004-0.019-0.032-0.152-0.060-0.298-0.111-0.576-0.11-0.583 0.276-0.984 0.101-0.107 0.186-0.208 0.192-0.229 0.023-0.091-0.023-0.107-0.474-0.167-0.18-0.023-0.332-0.047-0.339-0.051s-0.077-0.135-0.158-0.289c-0.080-0.154-0.18-0.342-0.219-0.418l-0.073-0.137-0.215 0.43z"></path>
<path d="M19.918 8.387c-0.029 0.047-0.105 0.193-0.17 0.326l-0.118 0.243-0.374 0.041c-0.206 0.022-0.379 0.044-0.383 0.047-0.003 0.004 0.121 0.134 0.276 0.289l0.284 0.284-0.047 0.26c-0.026 0.145-0.048 0.298-0.050 0.342-0.003 0.076-0.001 0.080 0.031 0.076 0.053-0.007 0.172-0.064 0.403-0.193l0.213-0.118 0.213 0.118c0.231 0.129 0.351 0.186 0.403 0.193 0.032 0.004 0.034 0 0.031-0.076-0.001-0.044-0.023-0.197-0.050-0.342l-0.047-0.26 0.284-0.284c0.155-0.155 0.279-0.285 0.276-0.289-0.004-0.003-0.177-0.025-0.383-0.047l-0.374-0.041-0.118-0.243c-0.12-0.247-0.213-0.409-0.235-0.409-0.007 0-0.037 0.038-0.066 0.083z"></path>
<path d="M10.641 8.423c-0.034 0.051-0.108 0.191-0.168 0.313-0.107 0.219-0.108 0.221-0.164 0.229-0.029 0.004-0.186 0.023-0.346 0.039-0.161 0.018-0.304 0.035-0.317 0.041-0.020 0.009 0.016 0.056 0.187 0.237 0.117 0.124 0.231 0.256 0.251 0.292 0.048 0.082 0.050 0.158 0.004 0.39-0.018 0.089-0.031 0.191-0.028 0.227 0.004 0.060 0.006 0.063 0.056 0.067 0.039 0.003 0.11-0.025 0.319-0.127l0.268-0.133 0.32 0.161c0.177 0.089 0.326 0.161 0.33 0.161 0.015 0-0.006-0.168-0.054-0.465l-0.045-0.266 0.259-0.27c0.231-0.24 0.254-0.27 0.224-0.276-0.018-0.004-0.155-0.020-0.304-0.038-0.149-0.016-0.295-0.034-0.326-0.038l-0.056-0.009-0.145-0.292c-0.145-0.294-0.168-0.333-0.191-0.333-0.007 0-0.041 0.041-0.073 0.091z"></path>
<path d="M18.978 11.543c0.006 0.808 0.010 0.844 0.088 0.902 0.034 0.025 0.042 0.026 0.079 0.009 0.069-0.034 0.091-0.092 0.105-0.276 0.016-0.19 0.029-0.237 0.083-0.272 0.031-0.020 0.044-0.020 0.079-0.006 0.066 0.026 0.174 0.14 0.257 0.27 0.134 0.208 0.294 0.323 0.393 0.285 0.072-0.026 0.048-0.088-0.126-0.323-0.105-0.142-0.172-0.262-0.172-0.308 0-0.023 0.026-0.067 0.072-0.118 0.098-0.111 0.133-0.21 0.133-0.373 0-0.153-0.037-0.269-0.102-0.326-0.042-0.035-0.218-0.104-0.314-0.121-0.023-0.006-0.14-0.022-0.259-0.037-0.118-0.016-0.238-0.034-0.268-0.039l-0.053-0.009 0.004 0.743zM19.513 11.161c0.076 0.032 0.114 0.073 0.134 0.143 0.015 0.053 0.013 0.073-0.010 0.134-0.022 0.061-0.037 0.077-0.092 0.105-0.076 0.037-0.165 0.050-0.222 0.031-0.057-0.020-0.073-0.077-0.067-0.235 0.006-0.172 0.023-0.2 0.132-0.2 0.039 0 0.095 0.010 0.126 0.022z"></path>
<path d="M11.081 10.862c-0.183 0.066-0.374 0.2-0.453 0.319-0.076 0.114-0.094 0.2-0.094 0.463-0.001 0.294 0.026 0.401 0.13 0.516 0.137 0.152 0.344 0.27 0.525 0.3 0.181 0.031 0.579-0.219 0.667-0.418 0.063-0.143 0.076-0.547 0.023-0.719-0.060-0.194-0.256-0.367-0.52-0.459-0.108-0.038-0.174-0.038-0.278-0.001zM11.426 11.177c0.142 0.070 0.196 0.205 0.196 0.488 0 0.183-0.028 0.284-0.104 0.377-0.101 0.126-0.336 0.165-0.496 0.083-0.058-0.031-0.127-0.111-0.164-0.19-0.031-0.066-0.034-0.095-0.034-0.292 0-0.212 0.001-0.222 0.042-0.304 0.075-0.151 0.197-0.219 0.376-0.209 0.070 0.003 0.12 0.016 0.183 0.047z"></path>
<path d="M13.534 10.848c-0.051 0.029-0.057 0.066-0.028 0.155 0.016 0.047 0.048 0.148 0.072 0.224 0.094 0.297 0.186 0.586 0.247 0.775 0.099 0.3 0.183 0.439 0.278 0.458 0.047 0.009 0.162-0.009 0.18-0.028 0.006-0.007 0.054-0.142 0.107-0.298s0.133-0.39 0.178-0.519c0.193-0.551 0.228-0.681 0.199-0.737-0.010-0.018-0.031-0.031-0.051-0.031-0.105 0-0.227 0.203-0.37 0.621-0.114 0.333-0.202 0.519-0.244 0.519-0.010 0-0.029-0.035-0.041-0.077-0.091-0.307-0.205-0.665-0.243-0.76-0.096-0.248-0.196-0.354-0.284-0.301z"></path>
<path d="M16.402 11.651v0.823l0.319-0.009c0.254-0.006 0.333-0.013 0.398-0.034 0.134-0.047 0.156-0.146 0.045-0.221-0.039-0.026-0.070-0.034-0.148-0.034-0.248 0-0.336-0.051-0.336-0.197 0-0.067 0.007-0.088 0.041-0.126 0.039-0.044 0.045-0.045 0.209-0.058 0.094-0.006 0.186-0.019 0.206-0.026 0.058-0.022 0.104-0.088 0.094-0.139-0.019-0.091-0.061-0.111-0.273-0.126-0.17-0.013-0.232-0.035-0.259-0.095-0.039-0.086-0.009-0.221 0.057-0.257 0.018-0.009 0.104-0.020 0.194-0.028 0.186-0.012 0.244-0.034 0.272-0.104 0.026-0.061-0.001-0.113-0.080-0.151-0.051-0.025-0.101-0.029-0.398-0.035l-0.341-0.006v0.822z"></path>
<path d="M20.592 13.781c-0.004 0.006-0.009 0.801-0.009 1.769v1.759h0.365v-1.433l0.383 0.003 0.384 0.004 0.082 0.139c0.045 0.076 0.146 0.25 0.225 0.387 0.395 0.681 0.493 0.826 0.598 0.876 0.061 0.029 0.269 0.032 0.307 0.004 0.023-0.018 0.020-0.025-0.032-0.12-0.031-0.057-0.143-0.247-0.251-0.424-0.444-0.734-0.49-0.816-0.507-0.919-0.012-0.072 0.019-0.113 0.145-0.193s0.225-0.181 0.294-0.294c0.265-0.437 0.183-1.061-0.172-1.305-0.098-0.067-0.276-0.13-0.453-0.159-0.215-0.037-0.269-0.042-0.729-0.067-0.218-0.012-0.446-0.025-0.509-0.028-0.061-0.004-0.116-0.003-0.12 0.001zM21.77 14.18c0.067 0.009 0.167 0.029 0.222 0.047 0.323 0.101 0.474 0.526 0.311 0.877-0.064 0.139-0.206 0.294-0.326 0.355l-0.086 0.044-0.465 0.007c-0.256 0.004-0.469 0.004-0.472 0.001-0.010-0.012-0.006-1.342 0.006-1.354 0.013-0.015 0.646 0.003 0.81 0.022z"></path>
<path d="M8.853 13.949c-0.066 0.408-0.102 0.896-0.094 1.225 0.007 0.244 0.020 0.31 0.069 0.33 0.013 0.006 0.237 0.015 0.498 0.022 0.482 0.010 0.523 0.015 0.7 0.077 0.191 0.069 0.325 0.251 0.377 0.515 0.029 0.149 0.016 0.25-0.056 0.418-0.162 0.379-0.368 0.493-0.854 0.474-0.314-0.013-0.594-0.050-0.693-0.091-0.11-0.045-0.148-0.015-0.148 0.12 0 0.164 0.053 0.202 0.384 0.27 0.272 0.057 0.586 0.072 0.772 0.037 0.278-0.053 0.479-0.151 0.64-0.316 0.221-0.222 0.319-0.509 0.304-0.883-0.012-0.316-0.089-0.513-0.263-0.675-0.104-0.096-0.278-0.184-0.447-0.224-0.161-0.038-0.484-0.063-0.744-0.057l-0.208 0.004v-0.365c0-0.491 0.016-0.556 0.153-0.624 0.050-0.026 0.101-0.032 0.344-0.042 0.156-0.007 0.398-0.012 0.535-0.012 0.384 0 0.386 0 0.386-0.209v-0.143h-1.633l-0.025 0.149z"></path>
<path d="M12.13 13.816c-0.015 0.007-0.026 0.029-0.026 0.048s0.060 0.152 0.133 0.295c0.174 0.341 0.49 0.943 0.769 1.466l0.151 0.282v1.4h0.439v-1.428l0.389-0.722c0.519-0.965 0.649-1.222 0.649-1.291 0-0.051-0.029-0.067-0.124-0.067-0.069 0-0.099 0.007-0.14 0.035-0.091 0.061-0.216 0.266-0.503 0.82-0.256 0.493-0.462 0.855-0.485 0.855-0.025 0-0.232-0.36-0.458-0.789-0.338-0.646-0.462-0.842-0.573-0.9-0.045-0.023-0.183-0.026-0.219-0.004z"></path>
<path d="M15.159 15.554v1.754h1.857v-0.351h-1.491v-1.301h1.418v-0.351h-1.418v-1.155l1.484 0.001 0.004-0.177 0.004-0.175h-1.858v1.754z"></path>
<path d="M18.607 13.857c-0.107 0.127-0.235 0.415-0.645 1.456-0.060 0.152-0.143 0.367-0.186 0.475-0.041 0.108-0.091 0.237-0.11 0.285s-0.061 0.159-0.094 0.248c-0.034 0.088-0.070 0.184-0.082 0.212-0.066 0.158-0.256 0.693-0.256 0.718 0 0.063 0.199 0.082 0.269 0.026 0.083-0.066 0.121-0.151 0.323-0.722l0.136-0.38h1.456l0.092 0.256c0.237 0.655 0.304 0.805 0.384 0.854 0.075 0.044 0.263 0.023 0.263-0.028 0-0.034-0.105-0.329-0.278-0.782-0.917-2.405-1.035-2.675-1.177-2.675-0.039 0-0.058 0.012-0.098 0.057zM18.744 14.407c0.056 0.101 0.216 0.512 0.376 0.957 0.073 0.205 0.14 0.389 0.149 0.408l0.015 0.034-0.494-0.007c-0.535-0.007-0.63-0.019-0.621-0.077 0.009-0.047 0.162-0.497 0.251-0.737 0.099-0.265 0.193-0.525 0.219-0.604 0.023-0.075 0.054-0.066 0.105 0.026z"></path>
<path d="M24.194 13.815c-0.152 0.019-0.336 0.072-0.446 0.129-0.136 0.072-0.348 0.279-0.417 0.412-0.044 0.085-0.050 0.11-0.056 0.241-0.015 0.332 0.116 0.634 0.351 0.816 0.101 0.076 0.449 0.253 0.67 0.339 0.325 0.127 0.519 0.253 0.611 0.398 0.091 0.14 0.117 0.351 0.058 0.471-0.039 0.083-0.276 0.323-0.355 0.361-0.117 0.056-0.898 0.025-1.172-0.048-0.047-0.012-0.108-0.023-0.136-0.025-0.048-0.001-0.051 0.001-0.064 0.060-0.007 0.034-0.007 0.091-0.003 0.127 0.029 0.19 0.216 0.247 0.813 0.248 0.355 0.001 0.452-0.009 0.651-0.067 0.272-0.079 0.485-0.281 0.598-0.561 0.145-0.361 0.022-0.776-0.291-0.987-0.121-0.080-0.396-0.224-0.557-0.289-0.208-0.085-0.231-0.095-0.363-0.159-0.329-0.158-0.418-0.276-0.418-0.557 0-0.254 0.070-0.398 0.234-0.481 0.137-0.069 0.23-0.080 0.526-0.072 0.251 0.009 0.399 0.029 0.525 0.075 0.099 0.037 0.171 0.031 0.215-0.016 0.047-0.051 0.073-0.14 0.056-0.191-0.029-0.088-0.335-0.181-0.721-0.221-0.164-0.018-0.17-0.018-0.308-0.001z"></path>
<path d="M6.717 13.851c-0.254 0.058-0.535 0.189-0.653 0.3-0.066 0.063-0.066 0.076-0.003 0.186 0.057 0.098 0.080 0.096 0.304-0.015 0.105-0.053 0.225-0.107 0.265-0.118 0.187-0.058 0.424-0.061 0.593-0.010 0.12 0.038 0.203 0.091 0.284 0.18 0.287 0.317 0.175 0.706-0.401 1.393-0.126 0.151-0.159 0.187-0.478 0.526-0.306 0.326-0.437 0.475-0.548 0.624-0.161 0.216-0.181 0.311-0.075 0.36 0.048 0.022 0.164 0.025 1.104 0.029l1.048 0.004v-0.352h-0.893c-0.547 0-0.89-0.006-0.887-0.013s0.228-0.247 0.501-0.531c0.901-0.933 0.972-1.026 1.074-1.371 0.041-0.139 0.056-0.415 0.029-0.528-0.061-0.259-0.232-0.45-0.531-0.592-0.246-0.116-0.456-0.137-0.734-0.072z"></path>
<path d="M10.905 20.312v0.957h0.146c0.137 0 0.151-0.003 0.183-0.037 0.035-0.034 0.037-0.042 0.038-0.237 0.001-0.224 0.015-0.348 0.039-0.373 0.009-0.009 0.085-0.022 0.167-0.028 0.177-0.013 0.345-0.061 0.472-0.137 0.162-0.095 0.224-0.2 0.237-0.409 0.010-0.142-0.012-0.254-0.070-0.373-0.102-0.203-0.254-0.26-0.788-0.292-0.14-0.007-0.294-0.018-0.339-0.022l-0.085-0.009v0.959zM11.714 19.783c0.066 0.028 0.098 0.089 0.098 0.186 0 0.181-0.096 0.253-0.341 0.254-0.123 0.001-0.146-0.003-0.164-0.025-0.028-0.038-0.041-0.183-0.029-0.303 0.015-0.143 0.028-0.151 0.228-0.142 0.088 0.004 0.178 0.018 0.208 0.029z"></path>
<path d="M14.312 20.311v0.959h0.379l0.004-0.335c0.004-0.306 0.007-0.338 0.032-0.365 0.034-0.037 0.108-0.041 0.167-0.010 0.069 0.035 0.172 0.159 0.314 0.377 0.149 0.23 0.228 0.311 0.31 0.327 0.058 0.010 0.228 0.001 0.254-0.015 0.025-0.016-0.006-0.067-0.257-0.443l-0.228-0.339 0.113-0.121c0.143-0.156 0.187-0.244 0.196-0.399 0.009-0.161-0.031-0.262-0.142-0.374-0.132-0.13-0.237-0.158-0.71-0.189-0.129-0.007-0.278-0.018-0.332-0.022l-0.099-0.009v0.957zM15.040 19.786c0.238 0.072 0.251 0.3 0.020 0.395-0.028 0.012-0.107 0.029-0.177 0.037-0.215 0.025-0.191 0.053-0.191-0.228v-0.244l0.137 0.010c0.075 0.004 0.17 0.019 0.21 0.031z"></path>
<path d="M7.378 19.38c-0.006 0.004-0.010 0.433-0.010 0.95v0.94h1.111v-0.365h-0.731v-0.422l0.3-0.004c0.288-0.004 0.3-0.006 0.332-0.038 0.029-0.028 0.034-0.048 0.034-0.149 0-0.089-0.006-0.121-0.025-0.142-0.034-0.032-0.139-0.045-0.377-0.047-0.266-0.001-0.263 0.001-0.263-0.199v-0.154l0.363-0.003 0.361-0.004v-0.365l-0.542-0.004c-0.298-0.001-0.545 0.001-0.551 0.007z"></path>
<path d="M8.786 19.383c0 0.009 0.077 0.137 0.172 0.284 0.19 0.291 0.291 0.462 0.339 0.57l0.031 0.070-0.058 0.117c-0.034 0.064-0.139 0.237-0.234 0.383s-0.194 0.304-0.219 0.349l-0.048 0.085 0.039 0.015c0.056 0.020 0.205 0.018 0.26-0.006 0.063-0.026 0.161-0.137 0.259-0.295 0.044-0.072 0.121-0.194 0.171-0.273l0.094-0.145 0.031 0.039c0.016 0.020 0.092 0.139 0.168 0.26 0.26 0.417 0.282 0.434 0.535 0.434 0.086 0 0.156-0.004 0.156-0.009s-0.111-0.17-0.246-0.368c-0.278-0.405-0.354-0.528-0.354-0.566 0-0.051 0.153-0.317 0.485-0.843 0.025-0.037 0.039-0.075 0.035-0.083-0.016-0.023-0.158-0.034-0.25-0.018-0.117 0.022-0.162 0.069-0.316 0.326-0.067 0.113-0.145 0.23-0.17 0.259l-0.048 0.053-0.067-0.072c-0.037-0.039-0.113-0.151-0.168-0.246-0.114-0.193-0.171-0.265-0.237-0.3-0.058-0.029-0.361-0.047-0.361-0.020z"></path>
<path d="M12.674 20.32v0.95h1.096v-0.365h-0.731v-0.424h0.268c0.285 0 0.365-0.013 0.392-0.061 0.020-0.037 0.012-0.253-0.010-0.275-0.025-0.025-0.187-0.044-0.395-0.044-0.251 0-0.246 0.004-0.251-0.196l-0.006-0.155h0.734v-0.38h-1.096v0.95z"></path>
<path d="M16.149 19.378c-0.006 0.006-0.010 0.434-0.010 0.952v0.94h0.38l-0.003-0.947-0.004-0.946-0.177-0.004c-0.096-0.001-0.18 0.001-0.186 0.006z"></path>
<path d="M17.187 19.38c-0.006 0.004-0.010 0.433-0.010 0.95v0.94h1.111v-0.365h-0.731v-0.422l0.298-0.004c0.368-0.006 0.36-0.001 0.36-0.18 0-0.076-0.007-0.129-0.020-0.146-0.025-0.035-0.126-0.048-0.374-0.050-0.266-0.001-0.263 0.001-0.263-0.199v-0.154l0.363-0.003 0.361-0.004v-0.365l-0.542-0.004c-0.298-0.001-0.545 0.001-0.551 0.007z"></path>
<path d="M18.829 20.32v0.95h0.384l-0.010-0.231c-0.004-0.126-0.016-0.395-0.025-0.595-0.009-0.202-0.010-0.414-0.006-0.474l0.010-0.11 0.028 0.037c0.045 0.060 0.365 0.599 0.588 0.993l0.21 0.373 0.265 0.004 0.266 0.003-0.003-0.946-0.004-0.947-0.355-0.009-0.009 0.107c-0.004 0.058-0.012 0.304-0.016 0.545s-0.012 0.506-0.016 0.588l-0.009 0.151-0.253-0.428c-0.139-0.234-0.322-0.545-0.405-0.69l-0.155-0.263-0.243-0.004-0.243-0.003v0.95z"></path>
<path d="M22.907 20.32v0.95h1.096v-0.365h-0.731v-0.424h0.268c0.285 0 0.365-0.013 0.392-0.061 0.020-0.037 0.012-0.253-0.010-0.275-0.025-0.025-0.187-0.044-0.395-0.044-0.251 0-0.246 0.004-0.251-0.196l-0.006-0.155h0.734v-0.38h-1.096v0.95z"></path>
<path d="M21.663 19.419c-0.143 0.050-0.313 0.152-0.403 0.241-0.155 0.152-0.209 0.336-0.209 0.716 0 0.342 0.035 0.477 0.158 0.607 0.213 0.225 0.672 0.335 0.956 0.228 0.124-0.047 0.187-0.127 0.187-0.24 0-0.098-0.009-0.099-0.355-0.088-0.256 0.009-0.303 0.007-0.341-0.013-0.064-0.034-0.172-0.158-0.219-0.253-0.038-0.077-0.039-0.086-0.031-0.273 0.010-0.256 0.045-0.37 0.14-0.466 0.105-0.104 0.174-0.12 0.497-0.107 0.143 0.006 0.273 0.006 0.291 0.001 0.020-0.007 0.032-0.023 0.032-0.044 0-0.019 0.010-0.061 0.022-0.096 0.038-0.108-0.010-0.145-0.287-0.212-0.192-0.047-0.311-0.047-0.439-0.001z"></path>
</symbol>
<symbol id="solver" viewBox="0 0 34 32">
<path d="M13.735 0.424c-1.885 0.424-3.521 1.125-5.187 2.25-0.921 0.628-2.265 1.812-2.265 2.016 0 0.058 0.234 0.19 0.511 0.278 0.497 0.161 0.541 0.146 1.213-0.438 1.826-1.622 4.413-2.776 7.043-3.171 6.97-1.052 13.794 3.843 15.123 10.842 0.365 1.87 0.219 4.88-0.292 6.502-0.102 0.307 0.731 0.716 0.964 0.482 0.248-0.248 0.716-3.098 0.716-4.413 0-6.59-4.544-12.493-10.915-14.217-1.666-0.438-5.202-0.511-6.911-0.132z"></path>
<path d="M13.881 4.72c0 1.286 0.073 1.52 0.395 1.257 0.132-0.117 0.19-0.541 0.19-1.315 0-1.052-0.029-1.154-0.292-1.154s-0.292 0.102-0.292 1.213z"></path>
<path d="M19.974 3.799c-1.417 0.424-2.528 2.148-3.375 5.29l-0.234 0.818-1.388-0.497c-0.76-0.263-1.768-0.687-2.236-0.921-0.453-0.234-1.227-0.584-1.71-0.789-2.981-1.227-5.567-2.338-6.575-2.805-0.643-0.292-1.461-0.599-1.826-0.687-1.768-0.395-2.995 1.154-2.279 2.879 0.409 0.964 1.154 1.52 4.223 3.142 1.578 0.833 1.71 0.935 1.505 1.154-0.321 0.351-0.497 1.315-0.351 1.958 0.102 0.497 0.073 0.628-0.248 1.008-0.511 0.599-0.511 1.534 0 2.133 0.365 0.438 0.365 0.453 0.131 0.964-0.219 0.438-0.219 0.599-0.088 1.067 0.205 0.628 0.409 0.891 1.344 1.724 0.365 0.307 0.789 0.877 0.964 1.242 0.248 0.541 0.643 0.921 2.119 2.031 1.008 0.76 2.367 1.637 3.054 1.958l1.242 0.599 2.674 0.102c2.966 0.131 3.536 0.248 5.231 1.169 0.57 0.321 1.14 0.57 1.257 0.57 0.409 0 2.791-1.68 3.755-2.645 0.511-0.511 1.227-1.33 1.593-1.812 0.628-0.848 1.563-2.542 1.666-3.025 0.029-0.161-0.321-0.424-1.213-0.877-2.499-1.286-4.793-3.448-6.181-5.816-0.672-1.125-1.359-3.098-1.476-4.194-0.102-0.804-0.058-0.994 0.497-2.353 0.614-1.549 0.76-2.542 0.424-2.981-0.395-0.482-1.607-0.672-2.499-0.409zM21.552 4.968c0.044 0.073-0.19 0.789-0.526 1.563-0.584 1.33-0.628 1.52-0.614 2.674 0.015 2.426 1.447 5.421 3.77 7.861 1.476 1.549 2.499 2.382 3.828 3.112 0.511 0.278 0.921 0.555 0.921 0.643 0 0.073-0.321 0.658-0.731 1.286-0.877 1.374-2.484 3.010-3.858 3.916l-1.008 0.672-0.672-0.409c-1.476-0.921-3.244-1.3-6.049-1.286-1.505 0-1.797-0.044-2.689-0.395-0.921-0.365-2.44-1.315-3.478-2.163l-0.438-0.365 0.555-0.015c1.067 0 1.856-0.731 1.856-1.71 0-0.307 0.102-0.453 0.424-0.599 0.468-0.205 0.964-1.067 0.848-1.505-0.146-0.526 0.175-0.424 0.497 0.161 0.365 0.643 0.76 0.848 1.081 0.584 0.307-0.263 0.263-0.658-0.117-1.286-0.687-1.096-0.848-2.133-0.511-3.273 0.146-0.482 0.132-0.599-0.073-0.804s-0.307-0.219-0.614-0.073c-0.351 0.161-0.511 0.117-1.432-0.38-7.028-3.755-10.243-5.553-10.667-5.962-0.599-0.584-0.76-1.154-0.438-1.651 0.19-0.292 0.307-0.336 0.833-0.278 0.321 0.044 1.023 0.278 1.549 0.511 0.526 0.248 2.469 1.096 4.311 1.87 1.856 0.774 3.726 1.607 4.164 1.826s1.403 0.614 2.119 0.877c0.731 0.278 1.344 0.511 1.374 0.526 0.029 0.029-0.102 0.278-0.278 0.555-0.395 0.658-0.292 1.111 0.263 1.111 0.248 0 0.468-0.117 0.599-0.336 0.511-0.804 1.037-2.046 1.476-3.463 0.57-1.856 1.037-2.776 1.783-3.448 0.453-0.409 0.672-0.497 1.198-0.497 0.365 0 0.701 0.058 0.745 0.146zM10.447 13.399l2.849 1.549v0.701c0 0.38 0.044 0.789 0.088 0.921 0.219 0.555-0.555 0.234-3.858-1.622-2.309-1.3-2.805-1.695-2.805-2.206 0-0.409 0.365-0.906 0.672-0.906 0.102 0 1.476 0.701 3.054 1.563zM8.855 15.912c1.125 0.628 2.309 1.286 2.645 1.461 1.111 0.555 1.359 1.476 0.409 1.476-0.818 0-5.494-2.703-5.728-3.302-0.073-0.205 0.321-0.789 0.541-0.789 0.058 0 1.023 0.511 2.133 1.154zM8.153 18.367c0.701 0.395 1.68 0.891 2.192 1.125 0.687 0.336 0.906 0.511 0.906 0.745 0 0.804-0.687 0.848-2.075 0.117-1.666-0.877-2.922-2.163-2.499-2.572 0.131-0.146 0.102-0.161 1.476 0.584z"></path>
<path d="M19.229 20.632c-0.365 0.526-0.073 0.848 0.774 0.848 0.555 0 0.818 0.088 1.257 0.438 0.438 0.336 0.599 0.395 0.818 0.278 0.321-0.161 0.351-0.672 0.088-1.023-0.643-0.848-2.484-1.184-2.937-0.541z"></path>
<path d="M15.898 5.816c-0.614 0.584-0.731 0.774-0.599 0.921 0.146 0.146 0.321 0.058 0.833-0.395 0.716-0.643 0.891-0.921 0.687-1.125-0.088-0.088-0.424 0.117-0.921 0.599z"></path>
<path d="M11.251 5.728c0.015 0.321 1.739 1.768 1.987 1.666 0.321-0.131 0.234-0.278-0.716-1.096-0.833-0.731-1.271-0.921-1.271-0.57z"></path>
<path d="M2.557 11.426c-0.745 3.317-0.248 7.218 1.33 10.184 1.987 3.784 5.83 6.692 9.995 7.554 1.476 0.321 4.325 0.351 5.626 0.073 1.184-0.248 2.703-0.745 2.703-0.877 0-0.073-0.263-0.234-0.584-0.38-0.555-0.248-0.628-0.248-1.783 0.015-1.724 0.395-4.427 0.365-6.152-0.058-5.026-1.242-9.074-5.421-10.097-10.433-0.292-1.417-0.307-3.843-0.015-5.333 0.117-0.628 0.219-1.213 0.219-1.3 0-0.146-0.599-0.497-0.877-0.497-0.058 0-0.234 0.468-0.365 1.052z"></path>
</symbol>
<symbol id="price" viewBox="0 0 32 32">
<path d="M14.875 0.063c-2.762 0.381-5.144 1.85-6.656 4.094-0.362 0.544-0.844 1.456-0.844 1.606 0 0.181 0.25 0.425 0.438 0.425 0.306 0 0.363-0.056 0.694-0.688 1.012-1.938 2.819-3.462 4.9-4.144 0.931-0.306 1.481-0.387 2.594-0.381 1.538 0 2.656 0.275 4.006 0.975 0.569 0.294 0.613 0.306 0.781 0.231 0.219-0.106 0.325-0.363 0.238-0.606-0.125-0.356-1.844-1.106-3.181-1.387-0.712-0.15-2.306-0.219-2.969-0.125z"></path>
<path d="M4.162 2.381c-0.206 0.163-0.225 0.481-0.037 0.65 0.231 0.206 1.838 1.094 1.987 1.094 0.075 0 0.213-0.069 0.294-0.156 0.162-0.156 0.194-0.337 0.094-0.531-0.075-0.144-1.875-1.188-2.044-1.188-0.069 0-0.2 0.056-0.294 0.131z"></path>
<path d="M26.5 2.781c-0.944 0.55-1.063 0.65-1.063 0.888 0 0.194 0.262 0.456 0.45 0.456 0.163 0 1.738-0.869 1.975-1.081 0.288-0.269 0.075-0.794-0.325-0.794-0.069 0-0.538 0.237-1.038 0.531z"></path>
<path d="M14.781 2.413c-2.281 0.406-4.194 1.881-5.194 3.994-0.412 0.875-0.594 1.631-0.631 2.688-0.019 0.506-0.006 1.063 0.037 1.319 0.162 1.056 0.631 2.225 1.219 3.050 0.575 0.806 0.781 0.925 1.125 0.656 0.269-0.213 0.219-0.431-0.213-1.006-0.456-0.6-0.881-1.463-1.069-2.144-0.188-0.706-0.231-2.012-0.094-2.713 0.269-1.319 0.787-2.275 1.75-3.225 1.219-1.2 2.619-1.781 4.287-1.781 1.131 0 2.131 0.275 3.156 0.869 0.681 0.394 1.7 1.412 2.119 2.112 0.35 0.6 0.688 1.531 0.794 2.206 0.1 0.669 0.038 1.906-0.131 2.531-0.569 2.1-2.2 3.738-4.35 4.356-0.431 0.125-0.631 0.144-1.588 0.144-1.244 0-1.656-0.081-2.619-0.537-0.287-0.131-0.588-0.244-0.669-0.244-0.369 0-0.537 0.537-0.256 0.8s1.425 0.7 2.25 0.856c0.7 0.131 1.994 0.119 2.7-0.025 1.619-0.338 3.087-1.231 4.119-2.512 0.531-0.656 1.1-1.794 1.331-2.65 0.156-0.575 0.169-0.719 0.169-1.781 0-1.050-0.019-1.213-0.169-1.769-0.194-0.737-0.606-1.625-1.044-2.25-0.356-0.525-1.1-1.288-1.656-1.7-0.45-0.337-1.469-0.85-2.031-1.025-1-0.313-2.331-0.4-3.344-0.219z"></path>
<path d="M22.144 2.688c-0.075 0.031-0.163 0.112-0.2 0.181-0.144 0.263-0.081 0.431 0.344 0.894 0.988 1.094 1.681 2.475 1.994 3.956 0.156 0.731 0.188 2.113 0.069 2.875-0.363 2.387-1.663 4.45-3.631 5.781-1.406 0.95-3.012 1.438-4.719 1.438-4.2 0-7.706-3.031-8.356-7.219-0.088-0.606-0.081-2.019 0.019-2.669 0.031-0.194 0.013-0.256-0.125-0.388-0.344-0.35-0.744-0.112-0.831 0.5-0.094 0.669-0.056 2.438 0.069 3.056 0.588 2.969 2.456 5.413 5.131 6.719 1.287 0.631 2.294 0.869 3.813 0.919 0.894 0.025 1.181 0.012 1.813-0.094 3.488-0.6 6.325-3.050 7.394-6.387 0.344-1.075 0.419-1.594 0.413-2.906 0-0.981-0.025-1.3-0.137-1.825-0.35-1.625-1.1-3.131-2.144-4.3-0.512-0.575-0.631-0.644-0.913-0.531z"></path>
<path d="M15.706 4.719c-0.106 0.075-0.15 0.188-0.181 0.456-0.037 0.362-0.037 0.362-0.3 0.438-0.875 0.237-1.481 1.112-1.394 2 0.075 0.719 0.481 1.244 1.269 1.65l0.4 0.206v2.856l-0.231-0.044c-0.125-0.019-0.394-0.125-0.594-0.225-0.194-0.1-0.438-0.181-0.537-0.181-0.356 0-0.544 0.475-0.294 0.75 0.175 0.194 0.838 0.5 1.262 0.581l0.381 0.069 0.037 0.319c0.037 0.338 0.244 0.594 0.475 0.594 0.063 0 0.194-0.063 0.281-0.144 0.125-0.106 0.169-0.213 0.2-0.488l0.031-0.35 0.325-0.113c0.225-0.081 0.438-0.231 0.731-0.525 0.519-0.519 0.694-0.931 0.694-1.637 0.006-0.938-0.525-1.65-1.475-1.969l-0.288-0.1v-1.15c0-0.881 0.019-1.15 0.081-1.15 0.038 0 0.225 0.069 0.406 0.156 0.375 0.175 0.587 0.156 0.731-0.050 0.113-0.162 0.119-0.412 0.012-0.55-0.1-0.131-0.625-0.4-0.956-0.487l-0.256-0.069-0.044-0.375c-0.050-0.406-0.175-0.563-0.475-0.563-0.088 0-0.219 0.044-0.294 0.094zM15.5 7.438c0 0.513-0.019 0.938-0.037 0.938-0.137 0-0.488-0.3-0.588-0.506-0.15-0.294-0.156-0.563-0.025-0.85 0.094-0.188 0.475-0.519 0.6-0.519 0.031 0 0.050 0.419 0.050 0.938zM16.738 9.963c0.194 0.1 0.4 0.313 0.512 0.531 0.113 0.225 0.087 0.775-0.056 1.056-0.125 0.244-0.519 0.637-0.631 0.637-0.038 0-0.063-0.456-0.063-1.156 0-0.637 0.012-1.156 0.031-1.156 0.025 0 0.113 0.037 0.206 0.088z"></path>
<path d="M3.406 5.781c-0.181 0.175-0.2 0.4-0.044 0.594 0.112 0.138 1.237 0.494 1.581 0.5 0.206 0 0.412-0.169 0.463-0.381 0.075-0.306-0.162-0.475-0.938-0.688-0.831-0.219-0.875-0.219-1.063-0.025z"></path>
<path d="M27.5 5.813c-0.744 0.206-0.981 0.381-0.906 0.681 0.050 0.213 0.256 0.381 0.462 0.381 0.344-0.006 1.469-0.362 1.581-0.5 0.156-0.194 0.137-0.419-0.044-0.594-0.188-0.194-0.281-0.188-1.094 0.031z"></path>
<path d="M2.319 9.1c-0.15 0.188-0.163 0.269-0.063 0.488 0.119 0.256 0.325 0.3 1.45 0.275 0.906-0.019 1.044-0.031 1.163-0.137 0.169-0.156 0.175-0.494 0.006-0.662-0.119-0.119-0.206-0.125-1.275-0.125h-1.156l-0.125 0.162z"></path>
<path d="M27.125 9.063c-0.169 0.169-0.163 0.506 0.006 0.662 0.119 0.106 0.256 0.119 1.163 0.137 1.125 0.025 1.331-0.019 1.45-0.275 0.1-0.219 0.087-0.3-0.063-0.488l-0.125-0.162h-1.156c-1.069 0-1.156 0.006-1.275 0.125z"></path>
<path d="M4.188 12.063c-0.775 0.225-0.781 0.231-0.869 0.412-0.1 0.219-0.087 0.294 0.063 0.488 0.087 0.113 0.188 0.162 0.313 0.162 0.156 0 0.756-0.15 1.45-0.35 0.056-0.019 0.15-0.119 0.206-0.225 0.081-0.156 0.081-0.219 0.019-0.369-0.144-0.356-0.313-0.375-1.181-0.119z"></path>
<path d="M26.806 11.938c-0.169 0.1-0.256 0.387-0.188 0.581 0.075 0.2 0.156 0.238 0.925 0.45 0.744 0.2 0.913 0.2 1.075-0.006 0.15-0.188 0.163-0.269 0.063-0.488-0.081-0.175-0.188-0.225-0.975-0.444-0.625-0.169-0.75-0.181-0.9-0.094z"></path>
<path d="M5.063 15.156c-0.494 0.287-0.938 0.575-0.981 0.631-0.206 0.287 0.006 0.713 0.35 0.713 0.213 0 1.769-0.863 1.994-1.106 0.075-0.081 0.138-0.219 0.138-0.306 0-0.194-0.263-0.463-0.45-0.463-0.081 0-0.55 0.238-1.050 0.531z"></path>
<path d="M25.594 14.781c-0.194 0.188-0.2 0.419-0.012 0.613 0.219 0.244 1.775 1.106 1.988 1.106 0.369 0 0.569-0.456 0.325-0.738-0.156-0.181-1.85-1.137-2.012-1.137-0.075 0-0.206 0.069-0.288 0.156z"></path>
<path d="M8.338 20.756c-0.256 0.131-0.275 0.288-0.275 2.394 0 1.962 0.006 2.025 0.131 2.188l0.131 0.169 1.019-0.019c1-0.019 1.012-0.019 1.319-0.206 0.769-0.475 0.938-1.538 0.356-2.212-0.213-0.25-0.213-0.25-0.106-0.45 0.075-0.144 0.094-0.313 0.075-0.619-0.025-0.519-0.225-0.85-0.656-1.106-0.275-0.156-0.35-0.175-1.081-0.188-0.475-0.012-0.831 0.006-0.912 0.050zM9.831 21.694c0.188 0.1 0.231 0.175 0.231 0.413 0 0.288-0.188 0.394-0.669 0.394h-0.394v-0.875h0.35c0.188 0 0.406 0.031 0.481 0.069zM10.256 23.619c0.194 0.194 0.231 0.419 0.106 0.65-0.131 0.25-0.25 0.288-0.813 0.294h-0.55v-1.125h0.537c0.506 0 0.544 0.006 0.719 0.181z"></path>
<path d="M12.938 20.731c-0.050 0.019-0.144 0.075-0.2 0.131-0.106 0.087-0.113 0.275-0.113 2.244 0 2.063 0.006 2.15 0.125 2.269 0.113 0.113 0.206 0.125 1.15 0.125h1.031l0.125-0.163c0.169-0.219 0.162-0.356-0.019-0.569-0.144-0.169-0.175-0.175-0.813-0.194l-0.662-0.025v-0.988h0.619c0.6 0 0.625-0.006 0.75-0.163 0.15-0.194 0.162-0.269 0.063-0.488-0.1-0.212-0.35-0.288-0.938-0.288h-0.494v-1h0.681c0.662 0 0.688-0.006 0.813-0.163 0.075-0.094 0.131-0.206 0.131-0.25 0-0.163-0.144-0.387-0.294-0.456s-1.775-0.087-1.956-0.025z"></path>
<path d="M17.613 20.775c-0.456 0.125-0.762 0.363-0.95 0.731-0.194 0.4-0.206 0.738-0.038 1.094 0.169 0.337 0.444 0.519 1.244 0.831 0.95 0.369 1.156 0.631 0.75 0.969-0.156 0.131-0.256 0.163-0.531 0.163-0.35 0-0.581-0.094-1.019-0.406-0.256-0.188-0.375-0.194-0.594-0.025-0.569 0.444 0.337 1.294 1.462 1.356 0.8 0.044 1.363-0.231 1.65-0.813 0.206-0.419 0.206-0.744 0-1.163-0.206-0.413-0.5-0.619-1.356-0.95-0.75-0.288-0.844-0.369-0.756-0.613 0.125-0.363 0.831-0.394 1.3-0.056 0.525 0.369 1.106-0.113 0.719-0.606-0.169-0.212-0.613-0.438-1.044-0.531-0.4-0.081-0.462-0.081-0.837 0.019z"></path>
<path d="M21.188 20.731c-0.194 0.075-0.313 0.231-0.313 0.425 0 0.337 0.125 0.431 0.606 0.469l0.425 0.031 0.031 1.831c0.031 1.725 0.038 1.837 0.15 1.925 0.181 0.131 0.5 0.113 0.637-0.044 0.113-0.125 0.119-0.262 0.137-1.938l0.019-1.806h0.4c0.356 0 0.413-0.019 0.525-0.163 0.075-0.094 0.131-0.206 0.131-0.25 0-0.163-0.144-0.387-0.294-0.456s-2.275-0.094-2.456-0.025z"></path>
<path d="M6.925 27.256c-0.063 0.031-0.138 0.163-0.175 0.294-0.081 0.313-0.081 3.887 0 4.113 0.125 0.325 0.463 0.438 0.719 0.238 0.112-0.081 0.131-0.188 0.156-0.919l0.031-0.825 0.5-0.038c0.581-0.038 0.863-0.144 1.144-0.431 0.325-0.325 0.412-0.544 0.412-1.031 0-0.5-0.088-0.719-0.438-1.056-0.331-0.319-0.669-0.413-1.519-0.413-0.4 0-0.775 0.031-0.831 0.069zM8.631 28.306c0.238 0.238 0.238 0.462 0 0.7-0.169 0.163-0.225 0.181-0.594 0.181h-0.412v-1.063h0.412c0.369 0 0.425 0.019 0.594 0.181z"></path>
<path d="M11.125 27.313c-0.119 0.119-0.125 0.206-0.125 2.269v2.15l0.144 0.131c0.225 0.213 0.588 0.162 0.706-0.094 0.025-0.063 0.063-0.387 0.081-0.719l0.037-0.6 0.625 0.719c0.344 0.394 0.675 0.744 0.731 0.775 0.287 0.156 0.675-0.075 0.675-0.406 0-0.163-0.1-0.313-0.544-0.819-0.331-0.369-0.519-0.625-0.469-0.644 0.044-0.012 0.213-0.113 0.375-0.225 0.994-0.688 0.781-2.169-0.369-2.569-0.175-0.063-0.512-0.094-1-0.094-0.662 0-0.756 0.012-0.869 0.125zM12.869 28.288c0.144 0.119 0.194 0.212 0.194 0.369 0 0.331-0.287 0.531-0.756 0.531h-0.369v-1.063h0.369c0.306 0 0.406 0.025 0.563 0.163z"></path>
<path d="M15.387 27.331c-0.137 0.144-0.137 0.175-0.137 2.275v2.137l0.162 0.125c0.094 0.075 0.231 0.131 0.313 0.131 0.175 0 0.381-0.188 0.431-0.387 0.019-0.081 0.031-1.056 0.019-2.163l-0.019-2.025-0.15-0.119c-0.2-0.163-0.456-0.15-0.619 0.025z"></path>
<path d="M19.038 27.313c-0.887 0.319-1.438 0.962-1.606 1.894-0.188 1.025 0.381 2.1 1.369 2.563 0.375 0.175 0.481 0.2 0.981 0.2 0.488 0 0.606-0.025 0.919-0.175 0.356-0.175 0.8-0.594 0.8-0.762 0-0.262-0.269-0.531-0.531-0.531-0.050 0-0.188 0.087-0.306 0.188-0.419 0.375-0.837 0.456-1.369 0.275-0.519-0.175-0.981-0.831-0.981-1.387 0-0.288 0.2-0.756 0.419-0.981 0.469-0.481 1.087-0.594 1.694-0.313 0.5 0.231 0.769 0.188 0.894-0.137 0.106-0.288-0.031-0.494-0.488-0.719-0.538-0.262-1.238-0.306-1.794-0.113z"></path>
<path d="M22.869 27.306l-0.15 0.119-0.019 2.025c-0.012 1.106 0 2.081 0.019 2.163 0.019 0.075 0.087 0.194 0.156 0.262 0.113 0.113 0.212 0.125 1.113 0.125 0.906 0 1-0.012 1.125-0.125 0.087-0.087 0.137-0.206 0.137-0.344s-0.050-0.256-0.137-0.344c-0.119-0.113-0.219-0.125-0.813-0.125h-0.675v-1h0.613c0.65-0.006 0.775-0.050 0.881-0.319 0.069-0.188-0.050-0.519-0.212-0.581-0.056-0.019-0.369-0.038-0.694-0.038h-0.587v-1h0.65c0.556 0 0.669-0.019 0.813-0.131 0.206-0.163 0.225-0.494 0.038-0.681-0.113-0.113-0.206-0.125-1.119-0.125-0.881 0-1.006 0.012-1.137 0.119z"></path>
</symbol>
<symbol id="mail" viewBox="0 0 43 32">
<path d="M38.667 0h-34.667c-2.206 0-4 1.794-4 4v24c0 2.206 1.794 4 4 4h34.667c2.206 0 4-1.794 4-4v-24c0-2.206-1.794-4-4-4zM38.667 2.667c0.181 0 0.353 0.038 0.511 0.103l-17.844 15.466-17.844-15.466c0.158-0.066 0.33-0.103 0.511-0.103h34.667zM38.667 29.333h-34.667c-0.736 0-1.333-0.598-1.333-1.333v-22.413l17.793 15.421c0.251 0.217 0.563 0.326 0.874 0.326s0.622-0.108 0.874-0.326l17.793-15.421v22.413c0 0.736-0.598 1.333-1.333 1.333z"></path>
</symbol>
</defs>
</svg>
