<svg aria-hidden="true" style="width:0;height:0;position:absolute;overflow:hidden" xmlns="http://www.w3.org/2000/svg"><defs><symbol id="phone" viewBox="0 0 20 32"><path d="M17 0H3C1.346 0 0 1.346 0 3v26c0 1.654 1.346 3 3 3h14c1.654 0 3-1.346 3-3V3c0-1.654-1.346-3-3-3zM3 2h14a1 1 0 0 1 1 1v21H2V3a1 1 0 0 1 1-1zm14 28H3a1 1 0 0 1-1-1v-3h16v3a1 1 0 0 1-1 1z"/><path d="M4.707 27.478c.391.365.391.956 0 1.321s-1.024.365-1.414 0c-.391-.365-.391-.956 0-1.321s1.024-.365 1.414 0z"/></symbol><symbol id="logo" fill="#213875" viewBox="0 0 32 32"><path d="M6.716 1.185C3.654 2.311 1.501 4.879.988 8.039c-.316 1.877-.237 14.736.079 16.277.711 3.319 3.042 5.788 6.222 6.598.988.257 2.509.296 9.343.257 8.02-.059 8.178-.059 9.304-.514 2.153-.889 4.01-2.746 4.919-4.978.435-1.047.454-1.304.514-9.047.04-5.333-.02-8.336-.158-9.047-.533-2.588-2.39-4.879-4.879-6.064L24.989.889 16.396.85C8.258.791 7.744.811 6.717 1.186zm12.049 5.353c2.509.395 4.484 1.837 5.452 4.01.474 1.047.553 1.442.553 2.983-.02 1.995-.454 3.398-1.462 4.82-.632.869-2.331 2.094-3.2 2.311l-.553.119v-3.2h-1.778v4.168l-5.63-.119-.059-2.825L12.029 16h-2.43l5.175-3.259c2.844-1.798 5.215-3.259 5.274-3.259s.099.158.099.336c0 .237-1.304 1.146-4.069 2.825-3.299 2.015-3.97 2.489-3.595 2.568.454.119.454.178.514 2.923l.059 2.825 3.832-.119.198-3.951 3.457-.119v1.481c0 1.363.02 1.462.395 1.363.593-.158 2.153-1.936 2.607-2.983.494-1.106.711-3.694.375-4.879-1.126-4.188-6.38-5.906-11.062-3.635-3.773 1.857-5.926 6.617-4.859 10.746.652 2.489 2.074 4.188 4.346 5.274 1.639.751 4.286.968 6.163.494 2.706-.711 5.116-2.509 6.044-4.543.296-.612.553-.928.79-.928.198 0 .336.059.296.158-.573 1.304-1.264 2.331-2.232 3.299-2.054 2.035-4.148 2.864-7.309 2.864-1.975 0-3.259-.277-4.741-1.047-4.286-2.173-6.025-7.704-3.872-12.306.81-1.719 1.58-2.667 3.062-3.714 1.462-1.047 2.37-1.442 4.069-1.798 1.62-.336 2.528-.356 4.148-.079z"/></symbol><symbol id="buyHouse" viewBox="0 0 32 32"><path d="M17.581.081C17.475.143 6.819 10.025 5.9 10.919c-.281.275-.356.506-.263.775.031.094.544.613 1.181 1.206 1.05.963 1.144 1.037 1.369 1.037.181 0 .3-.056.537-.25l.306-.25.019 3.475c.012 3.087 0 3.494-.081 3.594-.338.369-1.55.744-2.419.744h-.425v-.706c0-.8-.056-.962-.375-1.119-.2-.1-.463-.113-2.688-.113s-2.487.012-2.688.113a.718.718 0 0 0-.294.262c-.063.125-.075 1.413-.063 6.044l.013 5.894.175.169.169.175 5.306.038.206-.188.206-.181.037-2.275 1.45.025c1.944.038 1.875.019 5.45 1.488.969.4 1.813.65 2.406.719.65.075 2.488-.169 4.188-.563 2.762-.637 6.462-1.894 10.144-3.45.913-.387 1.169-.525 1.438-.769.781-.712 1.006-1.906.531-2.831-.194-.387-.669-.85-1.081-1.063-.313-.156-.469-.194-.919-.219-.531-.025-.556-.019-1.756.387-.675.225-1.25.413-1.288.413-.05 0-.069-1.506-.069-5.031 0-2.769.019-5.031.038-5.031s.163.113.319.25c.231.2.337.25.525.25.281 0 .569-.231 1.856-1.475.719-.7.762-.756.762-.981 0-.213-.05-.294-.356-.606C28.903 10.007 18.21.107 18.078.057c-.2-.075-.331-.069-.5.025zm5.663 6.406c2.925 2.731 5.319 4.969 5.319 4.981 0 .044-.956.938-1.019.956-.044.006-2.169-1.944-4.725-4.325C19.75 5.23 18.113 3.743 18 3.718c-.094-.019-.256 0-.363.044s-2.244 2-4.762 4.35c-2.512 2.35-4.6 4.281-4.644 4.294-.044.019-.306-.188-.594-.456l-.513-.481 5.356-4.987c2.944-2.737 5.375-4.975 5.4-4.969.019.012 2.431 2.25 5.363 4.975zm-1.569 2.251 3.7 3.456-.012 5.881-.019 5.881-.5.144c-1.238.369-3.813.969-4.769 1.119-.606.1-1.344.169-1.762.175-.625.012-.75-.006-.938-.113-.262-.156-.544-.55-.6-.831l-.038-.2h1.869c1.475 0 1.944-.019 2.238-.094 1.131-.3 2.012-1.238 2.225-2.375.188-1.006-.238-1.7-1.181-1.938-.194-.05-2.156-.275-4.356-.494-2.2-.225-4.113-.419-4.25-.438-.675-.081-1.85.125-2.613.456-.169.075-.319.131-.331.131s-.025-.256-.025-.563v-.563h11.362l.188-.156c.225-.188.281-.431.163-.706-.169-.4.069-.387-6.119-.387h-5.594v-4.906l3.763-3.512c2.069-1.931 3.794-3.494 3.831-3.469.031.019 1.731 1.594 3.769 3.5zm-5.8 11.687 2.844.294.019.637c.012.575.031.644.175.788.181.181.356.225.631.156.306-.081.413-.294.444-.906l.031-.531.475.044c.738.063 1.2.144 1.3.231.069.056.081.144.05.344-.087.6-.4 1.038-.931 1.319l-.319.169-2.413.031c-2.644.031-2.556.019-2.719.419-.144.337.025 1.313.331 1.919a2.39 2.39 0 0 0 1.831 1.294c1.631.231 6.081-.738 10.519-2.281.806-.281 1.269-.413 1.469-.413.7.006 1.238.656 1.113 1.337-.075.381-.288.613-.788.863-.256.131-.5.238-.544.238s-.194-.2-.331-.444c-.381-.644-.775-.781-1.163-.4-.212.212-.2.525.05.975.113.2.188.375.175.394-.05.05-2.294.906-3.406 1.3-3.3 1.175-6.012 1.869-8.25 2.119-1.05.113-1.531-.006-3.75-.925-2.681-1.113-3.331-1.269-5.325-1.269H6.124v-5.606l.706-.038c1.294-.069 2.212-.413 3.119-1.169.912-.762 1.869-1.156 2.863-1.175.119-.006 1.5.125 3.063.288zm-11 5.231v5.094H3.694L3.656 24l-.169-.169c-.131-.131-.237-.175-.425-.175s-.294.044-.425.175L2.468 24l-.038 6.75H1.249V20.562h3.625v5.094z"/><path d="M12.019 11.356c-.075.012-.213.113-.3.213l-.156.194v1.925c0 1.313.025 1.981.069 2.088.15.331.3.35 2.569.35 2.288 0 2.319-.006 2.5-.375.1-.194.113-.431.113-2.031s-.012-1.838-.113-2.031c-.175-.35-.3-.369-2.544-.363-1.1 0-2.063.019-2.137.031zm3.531 2.375.012 1.144h-2.75v-2.313l1.363.012 1.356.019.019 1.137zM19.394 11.356c-.075.012-.212.113-.3.213l-.156.194v1.925c0 1.313.025 1.981.069 2.088.15.331.3.35 2.556.35 1.756 0 2.1-.012 2.256-.1.344-.175.369-.331.369-2.319 0-1.588-.012-1.825-.113-2.019-.175-.35-.3-.369-2.544-.363-1.1 0-2.063.019-2.137.031zm3.531 2.375.012 1.144h-2.75v-2.313l1.363.012 1.356.019.019 1.137zM23.281 17.194c-.387.225-.462.694-.163 1 .444.444 1.2-.006 1.006-.594a.845.845 0 0 0-.181-.313c-.15-.137-.5-.188-.663-.094zM2.837 21.619c-.188.081-.4.369-.4.55 0 .337.3.644.625.644.331 0 .625-.306.625-.65 0-.35-.519-.681-.85-.544z"/></symbol><symbol id="soldHouse" viewBox="-1 0 32 32"><path d="M11.15 4.525 8.625 7.062V6.15c0-.813.025-.9.25-.9.213 0 .25-.088.25-.5v-.5H4v.5c0 .412.037.5.25.5.237 0 .25.088.25 2.975v2.963l-2.125 2.125C1.2 14.475.25 15.475.25 15.526c0 .063.725.1 1.625.1H3.5v14.375h.85c1.188.012 19.012.012 19.438.012l.337-.012v-4.625h-1v3.625h-5.25v-10.25h-8.25v10.25H4.5V15.626h18.625v1.5h1v-1.5h3.313l-6.813-6.813C16.875 5.063 13.787 2 13.75 2s-1.2 1.138-2.6 2.525zm8.225 4.413 5.563 5.563H2.688l5.563-5.563 5.563-5.563 5.563 5.563zM7.625 6.662v1.4L5.5 10.187V5.249h2.125v1.412zm9.25 17.713V29h-6.25v-9.25h6.25v4.625z"/><path d="M12.688 7.575c-1.037.562-1.488 1.362-1.412 2.5.088 1.325.95 2.25 2.275 2.387.713.088 1.375-.137 1.963-.675a2.541 2.541 0 0 0-.25-3.975c-.438-.3-.662-.375-1.363-.4-.6-.025-.95.013-1.213.162zm1.949 1.087c1.075.713.8 2.275-.463 2.713-.9.313-1.925-.5-1.925-1.537 0-.4.088-.575.488-.975s.575-.488.975-.488c.313 0 .662.113.925.287zM20.5 21.25v3.125h5.125l.025 2.837.038 2.85h1l.038-2.85.025-2.837h5.125v-6.25H20.501v3.125zm10.375.063v2.063H21.5v-4.125h9.375v2.063z"/><path d="M22.913 20.4c-.563.275-.425.825.275 1.113l.375.163-.375.038c-.637.075-.738.137-.563.35.188.225 1.012.25 1.225.038.2-.2.188-.663-.012-.825-.075-.075-.3-.163-.488-.212-.45-.113-.3-.363.163-.262.363.063.6-.113.413-.3-.2-.188-.725-.238-1.012-.1zM24.813 20.387c-1.163.65-.25 2.375.938 1.738.488-.262.563-1.212.1-1.587-.262-.225-.762-.3-1.038-.15zm.837.676c.175.4-.063.712-.512.663-.225-.025-.337-.125-.363-.325-.087-.625.613-.9.875-.337zM26.65 20.363c-.113.063-.15.375-.125.962l.038.863h.625c.475 0 .625-.05.625-.188 0-.125-.15-.2-.4-.225-.413-.038-.413-.05-.413-.712 0-.7-.087-.863-.35-.7zM28.275 20.35c-.113.075-.15.375-.125.975.038.85.05.863.4.9.575.075.938-.075 1.137-.475.225-.425.15-.887-.188-1.188-.262-.238-1-.363-1.225-.212zm.862.525c.425.238.225.875-.288.875-.175 0-.225-.1-.225-.5 0-.512.1-.587.512-.375z"/></symbol><symbol id="handshake" viewBox="0 -3 57 32"><path d="M5.679.164c-.335.208-.514.497-.734 1.207C4.466 2.919 2.005 11.624.78 16.083c-.89 3.264-.895 3.292-.63 3.616.318.375 1.184.676 5.274 1.814 2.68.751 4.165 1.126 4.448 1.126.647 0 .982-.485 1.421-2.051.116-.416.231-.774.254-.797.023-.029.3.231.612.572 1.64 1.785 2.293 2.449 3.593 3.685 3.015 2.848 5.643 5.141 7.63 6.643 1.392 1.046 1.871 1.248 2.98 1.248.716 0 1.173-.098 1.675-.364.456-.243.999-.786 1.265-1.265.121-.22.231-.393.243-.393s.208.144.433.318c.849.653 1.594.913 2.651.913.734-.006 1.017-.081 1.687-.456.745-.422 1.086-.809 1.404-1.594l.191-.479.716-.035c.797-.04 1.294-.156 1.802-.404 1.103-.549 1.733-1.392 1.975-2.646.046-.237.121-.479.173-.531.052-.058.225-.133.387-.168.167-.04.56-.196.884-.347.93-.451 1.473-1.051 1.877-2.085l.191-.497.612-.069c.97-.104.907-.121 1.109.323.231.514.451.78.739.913.237.104.248.104.826-.023 1.571-.352 7.469-2.01 8.427-2.374.474-.173.687-.341.849-.653.133-.266.139-.3.075-.612-.306-1.473-4.263-15.474-5.02-17.756-.329-.988-.41-1.08-.993-1.08-.497 0-1.704.295-4.684 1.149-2.732.78-4.667 1.369-4.84 1.484-.069.046-.208.225-.306.393-.092.173-.231.352-.306.399-.069.046-.416.179-.762.289l-.635.196-.866-.399c-3.281-1.519-5.666-2.316-7.763-2.588-.803-.104-2.518-.139-2.963-.064-.641.11-1.716.439-2.64.814-1.022.404-1.196.439-2.975.52a109.85 109.85 0 0 0-4.806.323l-.942.098-.306-.289c-.168-.162-.393-.318-.503-.352-1.103-.347-3.495-1.034-6.094-1.744C6.22.001 6.007-.039 5.678.163zm3.385 3.073c.907.254 2.224.63 2.934.843 1.178.347 1.282.393 1.282.508 0 .173-.543 2.149-2.056 7.509a2149.45 2149.45 0 0 0-1.675 5.921c-.462 1.64-.514 1.814-.63 1.906-.069.058-1.9-.416-4.91-1.282l-1.271-.364.012-.202c.006-.11.237-1.005.508-1.981a2460.17 2460.17 0 0 1 3.645-12.91l.144-.479.185.04c.104.017.924.243 1.831.491zm40.543.092c.075.191 2.911 10.218 3.547 12.552.606 2.218.745 2.784.693 2.836-.133.127-6.111 1.779-6.181 1.704-.11-.11-4.349-15.116-4.349-15.399 0-.075.433-.22 2.039-.682 1.115-.323 2.478-.722 3.015-.878.543-.156 1.022-.283 1.074-.283.052-.006.127.064.162.15zm-19.113.59c1.75.306 3.408.872 6.036 2.068 1.831.832 2.039.907 2.368.901.162-.006.653-.11 1.097-.225.838-.22 1.184-.289 1.184-.237 0 .023.144.514.318 1.103.612 2.091 2.432 8.653 3.027 10.952.162.607.214.913.173.953-.029.029-.266.069-.514.075l-.456.023-.451-.456c-.705-.71-2.27-2.033-6.689-5.649-4.557-3.726-5.718-4.633-6.36-4.956-.491-.248-.63-.248-1.3-.017-.814.277-1.23.364-2.045.433-.381.029-.757.081-.838.11-.185.069-.41.318-1.034 1.138-.641.832-1.825 2.016-2.31 2.293-.705.41-1.23.416-1.635.023-.289-.283-.41-.572-.439-1.074-.064-1.051.537-2.703 1.456-4.043.612-.89 1.669-1.86 2.651-2.438.861-.503 2.056-.953 2.9-1.086.543-.081 2.103-.023 2.859.11zm-9.843 1.317a27.39 27.39 0 0 1-.52.786c-1.294 1.935-1.877 3.835-1.71 5.58.075.803.179 1.196.468 1.791.682 1.386 2.189 2.039 3.691 1.594 1.225-.364 2.565-1.38 3.986-3.021l.549-.635 1.109-.237c.942-.202 1.132-.225 1.294-.168.37.127 1.311.872 8.474 6.712 2.466 2.01 3.547 2.923 3.575 3.021.017.081.035.318.04.531.006.341-.017.427-.167.67-.237.387-.762.791-1.028.791-.439 0-.762-.237-3.749-2.732-2.617-2.189-2.778-2.305-3.171-2.305-.503 0-.924.26-1.155.705-.243.474-.11.82.572 1.484.277.271 1.346 1.213 2.38 2.085 2.842 2.403 2.946 2.507 2.946 2.94 0 .329-.156.635-.508 1.005-.514.531-.895.618-1.409.312-.139-.081-1.3-1.022-2.588-2.097-2.686-2.235-3.287-2.715-3.61-2.859-.762-.352-1.588.196-1.588 1.057 0 .543.012.555 2.542 2.669 2.339 1.952 2.657 2.276 2.657 2.709 0 .462-.514 1.196-.918 1.317-.41.121-.826-.144-2.605-1.675-3.073-2.651-3.703-3.183-3.876-3.275-.705-.37-1.687.266-1.692 1.097-.006.375.017.41 1.479 1.918 1.201 1.242 1.375 1.502 1.265 1.871-.035.127-.196.364-.375.555l-.312.329-.3-.029c-.375-.035-.826-.341-2.345-1.56-3.177-2.547-5.69-4.771-7.936-7.03-1.877-1.883-2.946-3.165-3.443-4.136l-.243-.462 1.317-4.592c1.617-5.672 1.744-6.082 1.935-6.238.081-.069 1.259-.22 2.888-.37.543-.052 1.074-.098 1.184-.11.404-.04.93-.04.901 0z"/></symbol><symbol id="advice" viewBox="0 0 32 32"><path d="M10.813.087a2.425 2.425 0 0 0-1.869 1.944c-.037.2-.069 1.038-.069 1.862v1.494l.144-.037a6.61 6.61 0 0 1 .625-.081l.481-.037V3.676c0-1.4.012-1.575.119-1.788.137-.262.262-.387.569-.55.213-.113.556-.119 9.563-.119h9.344l.25.131c.288.156.413.281.556.569.094.188.1.594.087 4.169l-.019 3.963-.194.244c-.419.512-.169.481-4.206.519l-3.587.031-2.725 2.813-.006-1.269V11.12l-.163-.15-.169-.156h-3.106v.169c0 .1-.019.363-.044.594l-.038.425h2.331v3.444l.163.15a.56.56 0 0 0 .425.156c.244 0 .288-.031.781-.544.288-.306 1.1-1.144 1.806-1.875l1.281-1.325 3.413-.019c3.413-.019 3.413-.019 3.775-.162.738-.3 1.356-1.075 1.488-1.875.081-.512.075-7.463-.012-7.919A2.435 2.435 0 0 0 29.851.071c-.556-.1-18.569-.087-19.038.019z"/><path d="M9.338 6.094c-.813.175-1.444.525-2.494 1.388C5.6 8.507 5.338 9.032 5.35 10.501c.006.581.044 1.037.131 1.45l.125.606-.213-.006a.484.484 0 0 0-.319.094c-.125.131-.181.819-.081 1.119.094.287.813.988 1.063 1.044.175.031.225.1.469.65.719 1.594 1.819 2.812 2.913 3.213 1.75.65 3.55-.531 4.787-3.144.294-.606.363-.713.488-.713.231 0 1.012-.781 1.094-1.094.094-.344.088-.681-.019-.938-.088-.2-.119-.219-.356-.219s-.256-.012-.219-.144c.275-1.006.325-2.5.106-3.169-.219-.694-.444-.981-1.294-1.694-1.063-.894-1.481-1.144-2.375-1.4-.438-.125-.669-.156-1.238-.15a6.65 6.65 0 0 0-1.075.088zM5.594 20.262c-.306.1-.912.294-1.344.431-1.331.419-2.106.894-2.538 1.538C.95 23.375.406 26.356.156 30.687c-.031.587-.025.675.087.863.075.113.219.256.331.325C.78 32 .912 32 10.361 32c10.406 0 9.844.019 10.125-.344.119-.15.137-.25.137-.75 0-.738-.156-2.719-.313-3.938-.244-1.894-.544-3.231-.95-4.212-.381-.919-1.231-1.556-2.706-2.025-1.256-.406-2.169-.675-2.188-.656-.012.012-.15.519-.306 1.131-.4 1.531-1.037 3.625-1.419 4.65-.331.887-.725 1.825-.8 1.913-.025.025-.25-1.087-.5-2.469l-.463-2.512.106-.444c.056-.238.1-.456.1-.475 0-.025-.181-.156-.4-.294l-.4-.25-.381.25c-.206.137-.381.3-.381.356s.044.256.094.444c.094.344.094.363-.356 2.844-.244 1.375-.456 2.512-.469 2.531-.044.05-.131-.125-.463-.906-.544-1.281-1.219-3.438-1.95-6.188-.094-.356-.181-.563-.237-.569-.05-.006-.338.075-.65.175z"/></symbol><symbol id="care" viewBox="0 0 32 32"><path d="M17.5 1.094c-.363.044-1.375.194-2.25.337-.875.137-1.844.281-2.144.319s-.7.125-.887.194c-.313.119-2.281 1.394-3.031 1.962-.556.431-.863.756-.938 1.013-.106.344-.063.531.137.631l.175.081-.188.256c-.225.306-.244.588-.05.831.313.394.963.506 1.681.281.469-.144.863-.381 1.425-.862.45-.381.963-.644 1.537-.794.637-.162 2.181-.3 2.969-.256.831.037 1.288.156 2.337.594l.75.306-.313.05c-.344.05-3.481-.069-4.6-.175-.65-.063-.762-.056-1.012.037-.356.138-.681.506-.856.969-.106.294-.119.388-.063.581.1.319.344.594.706.775.637.325 2.25.644 3.862.775 1.25.094 1.262.1 2.313.594 1.494.713 2.3.938 3.55 1.012 1.125.063 3.231-.219 4.438-.6.694-.213.637.025.637-2.8 0-1.475-.025-2.513-.063-2.575-.081-.156-.194-.2-.819-.287-.637-.094-1.056-.263-3.438-1.413-1.819-.875-3.144-1.475-3.806-1.725-.506-.194-1.163-.231-2.063-.113zM28.556 3.431l-.15.119-.019 3.494c-.006 1.919 0 3.55.019 3.625.075.313.156.331 1.269.331.575 0 1.075-.025 1.113-.05.2-.131.212-.319.212-3.825V3.619l-.156-.15c-.15-.15-.175-.156-1.144-.156-.887 0-1.012.013-1.144.119zM12.988 9.456c-.325.512-.438.994-.475 1.981-.025.85-.037.919-.181 1.094-.15.175-.156.213-.131.844.025.569.05.713.213 1.063.106.225.325.569.481.762.162.2.294.394.294.438 0 .037.113.3.244.581.675 1.381 2.069 2.081 3.325 1.656.488-.163.819-.381 1.194-.762.306-.319.663-.9.806-1.331.05-.137.206-.4.35-.581.531-.656.725-1.225.694-2.012-.012-.463-.044-.575-.15-.7-.119-.125-.137-.238-.169-.925-.012-.431-.044-.825-.069-.881-.05-.119-.969-.556-1.469-.706-.188-.056-.975-.169-1.75-.256-1.356-.156-2.444-.338-2.787-.469-.231-.088-.231-.088-.419.206z"/><path d="M12.55 17.219c-2.294.931-2.906 1.294-3.463 2.05-.231.313-.713 1.206-.713 1.325 0 .019.3.031.662.031 1.387 0 2.606.294 3.931.944.938.462 1.425.581 3.025.744 2.331.231 3.444.569 4.094 1.244.188.194.281.244.406.225.087-.019.444-.075.788-.131.831-.131 1.925-.419 2.375-.613l.363-.163-.038-.613c-.081-1.375-.75-2.856-1.631-3.587-.413-.35-1.462-.881-2.8-1.419l-.794-.319-.488.488c-1.394 1.406-3.144 1.406-4.537 0a15.46 15.46 0 0 0-.5-.488c-.006.006-.313.131-.681.281zM1.288 21.019a.44.44 0 0 0-.219.206c-.05.113-.069 1.163-.069 3.656v3.5l.156.156c.156.156.163.156 1.188.137.888-.019 1.044-.031 1.138-.131.106-.1.112-.35.131-3.625.019-3.669.006-3.813-.25-3.894-.188-.056-1.9-.063-2.075-.006zM7.55 21.462c-.781.1-2.075.363-2.619.538-.669.206-.619-.025-.619 2.794 0 1.475.025 2.512.063 2.575.081.156.194.2.819.288.631.094 1.037.256 3.431 1.406 2.275 1.094 3.725 1.731 4.206 1.85.569.15 1.287.081 4.325-.413.619-.1 1.381-.212 1.688-.25.313-.038.7-.113.869-.169.331-.106 2.863-1.769 3.413-2.238.494-.425.65-.663.65-1.019.006-.256-.012-.3-.169-.375l-.175-.081.194-.262c.488-.669-.087-1.294-1.125-1.219-.575.044-1.163.331-1.844.894-.531.444-.8.606-1.331.788-.575.2-1.706.331-2.856.331-1.231.006-1.406-.031-2.662-.55l-.831-.337.306-.05c.35-.05 3.481.069 4.606.175.65.063.762.056 1.012-.038.356-.137.681-.506.856-.969.106-.294.119-.387.063-.581-.156-.519-.6-.819-1.587-1.081a17.632 17.632 0 0 0-2.669-.438c-1.456-.1-1.588-.131-2.625-.625-1.613-.762-2.375-.969-3.813-1.006a12.013 12.013 0 0 0-1.575.063z"/></symbol><symbol id="facebook" viewBox="0 0 32 32"><path d="M29 0H3C1.35 0 0 1.35 0 3v26c0 1.65 1.35 3 3 3h13V18h-4v-4h4v-2c0-3.306 2.694-6 6-6h4v4h-4c-1.1 0-2 .9-2 2v2h6l-1 4h-5v14h9c1.65 0 3-1.35 3-3V3c0-1.65-1.35-3-3-3z"/></symbol><symbol id="instagram" viewBox="0 0 32 32"><path d="M16 2.881c4.275 0 4.781.019 6.462.094 1.563.069 2.406.331 2.969.55a4.952 4.952 0 0 1 1.837 1.194 5.015 5.015 0 0 1 1.2 1.838c.219.563.481 1.412.55 2.969.075 1.688.094 2.194.094 6.463s-.019 4.781-.094 6.463c-.069 1.563-.331 2.406-.55 2.969a4.94 4.94 0 0 1-1.194 1.837 5.02 5.02 0 0 1-1.837 1.2c-.563.219-1.413.481-2.969.55-1.688.075-2.194.094-6.463.094s-4.781-.019-6.463-.094c-1.563-.069-2.406-.331-2.969-.55a4.952 4.952 0 0 1-1.838-1.194 5.02 5.02 0 0 1-1.2-1.837c-.219-.563-.481-1.413-.55-2.969-.075-1.688-.094-2.194-.094-6.463s.019-4.781.094-6.463c.069-1.563.331-2.406.55-2.969a4.964 4.964 0 0 1 1.194-1.838 5.015 5.015 0 0 1 1.838-1.2c.563-.219 1.412-.481 2.969-.55 1.681-.075 2.188-.094 6.463-.094zM16 0c-4.344 0-4.887.019-6.594.094-1.7.075-2.869.35-3.881.744-1.056.412-1.95.956-2.837 1.85a7.833 7.833 0 0 0-1.85 2.831C.444 6.538.169 7.7.094 9.4.019 11.113 0 11.656 0 16s.019 4.887.094 6.594c.075 1.7.35 2.869.744 3.881.413 1.056.956 1.95 1.85 2.837a7.82 7.82 0 0 0 2.831 1.844c1.019.394 2.181.669 3.881.744 1.706.075 2.25.094 6.594.094s4.888-.019 6.594-.094c1.7-.075 2.869-.35 3.881-.744 1.05-.406 1.944-.956 2.831-1.844s1.438-1.781 1.844-2.831c.394-1.019.669-2.181.744-3.881.075-1.706.094-2.25.094-6.594s-.019-4.887-.094-6.594c-.075-1.7-.35-2.869-.744-3.881a7.506 7.506 0 0 0-1.831-2.844A7.82 7.82 0 0 0 26.482.843C25.463.449 24.301.174 22.601.099c-1.712-.081-2.256-.1-6.6-.1z"/><path d="M16 7.781c-4.537 0-8.219 3.681-8.219 8.219s3.681 8.219 8.219 8.219 8.219-3.681 8.219-8.219A8.221 8.221 0 0 0 16 7.781zm0 13.55a5.331 5.331 0 1 1 0-10.663 5.331 5.331 0 0 1 0 10.663zM26.462 7.456a1.919 1.919 0 1 1-3.838 0 1.919 1.919 0 0 1 3.838 0z"/></symbol><symbol id="telegram" viewBox="0 0 32 32"><path d="M16 0C7.162 0 0 7.162 0 16s7.162 16 16 16 16-7.163 16-16S24.837 0 16 0zm7.863 10.969-2.625 12.369c-.181.881-.712 1.087-1.45.681l-4-2.956-1.919 1.869c-.225.219-.4.4-.8.4-.519 0-.431-.194-.606-.688L11.1 18.169l-3.956-1.231c-.856-.262-.862-.85.194-1.269l15.412-5.95c.7-.319 1.381.169 1.113 1.25z"/></symbol><symbol id="sampson" viewBox="0 0 32 32"><path d="M2.064 12.881c-.478.132-.807.372-.983.718-.325.645-.064 1.286.602 1.491.073.021.547.077 1.055.12.974.085 1.162.128 1.376.333.201.188.231.521.081.807-.09.167-.393.384-.641.461-.543.175-1.461.064-1.829-.214-.167-.128-.312-.402-.316-.585 0-.214-.038-.248-.261-.248H.939v.162c0 .338.12.611.376.863.359.355.859.513 1.589.513.816-.004 1.44-.299 1.718-.825.077-.141.098-.252.098-.521 0-.372-.051-.508-.261-.722-.282-.282-.521-.342-1.666-.431-.893-.064-1.102-.12-1.277-.329-.081-.098-.107-.175-.107-.338 0-.265.073-.414.303-.611.273-.231.534-.303 1.085-.303.449 0 .487.009.76.141.338.167.5.372.534.671l.021.192h.466L4.548 14c-.06-.5-.355-.859-.863-1.06-.32-.124-1.269-.158-1.623-.06zM17.653 12.881a2.495 2.495 0 0 0-.363.132c-.735.376-.991 1.273-.508 1.782.261.273.526.342 1.726.431.662.051.786.073.983.167.282.137.376.286.376.594 0 .654-.709 1.013-1.752.889-.675-.081-1.025-.35-1.119-.846l-.051-.265h-.41v.192c0 .449.295.88.756 1.111.423.209 1.183.291 1.747.188 1.141-.209 1.688-1.316.995-2.012-.278-.278-.56-.355-1.619-.436-.901-.068-1.068-.107-1.252-.273-.222-.209-.235-.513-.03-.842.329-.534 1.662-.658 2.247-.214.162.124.316.423.316.615v.137l.449-.026-.013-.192c-.038-.461-.376-.889-.854-1.072-.316-.124-1.269-.158-1.623-.06zM22.785 12.881c-.778.209-1.38.799-1.572 1.538-.081.316-.081.953 0 1.256.214.803.842 1.389 1.696 1.568.367.081 1.008.06 1.329-.043.983-.312 1.564-1.115 1.568-2.162 0-1.051-.645-1.893-1.653-2.153-.325-.085-1.06-.085-1.367-.004zm1.102.363c.547.103 1.06.483 1.282.953.444.948.094 2.055-.786 2.487-1.307.637-2.807-.226-2.807-1.615 0-1.23 1.051-2.059 2.311-1.824zM6.4 14.919a245.843 245.843 0 0 0-1.094 2.179l-.051.124.487-.026.235-.457.239-.461h2.649l.235.461.235.457h.235c.137 0 .231-.017.226-.043s-.491-1-1.081-2.17C7.754 13.086 7.63 12.86 7.54 12.86s-.214.222-1.141 2.059zm1.747-.081c.265.534.483.983.483.991 0 .013-.491.021-1.089.021s-1.089-.009-1.089-.021c0-.013.209-.44.461-.953.256-.508.5-1.021.547-1.141l.077-.209.064.167c.034.094.282.611.547 1.145zM10.617 12.911c-.013.03-.017 1.008-.013 2.17l.013 2.115h.384l.043-3.486.231.355c.363.564 1.717 2.469 1.752 2.469.038 0 1.606-2.222 1.854-2.627l.158-.252v3.567l.406-.026v-4.315l-.137-.013c-.09-.009-.158.013-.214.073a67.79 67.79 0 0 0-1.06 1.495c-.538.778-.995 1.406-1.013 1.401s-.474-.645-1.017-1.418a94.224 94.224 0 0 0-1.055-1.487c-.077-.085-.303-.098-.333-.021zM26.903 12.89c-.017.013-.03.995-.03 2.179v2.153l.406-.026.043-3.58.145.167c.081.09.859.901 1.73 1.803 1.542 1.594 1.585 1.636 1.735 1.624l.15-.013.013-2.072c.004-1.141 0-2.115-.013-2.17-.017-.077-.051-.094-.184-.094-.09 0-.184.021-.214.051-.038.038-.051.5-.051 1.816v1.769l-.222-.252c-.124-.137-.91-.957-1.743-1.816-1.226-1.273-1.538-1.568-1.628-1.568-.06 0-.124.013-.137.03zM10.514 18.034a.507.507 0 0 0-.269.286c-.209.47.081.906.598.906.423 0 .666-.231.666-.628 0-.508-.521-.803-.995-.564zm.709.222c.218.218.154.637-.115.778-.496.256-1.013-.325-.658-.743a.532.532 0 0 1 .773-.034zM25.784 18.004c-.252.107-.333.325-.192.504.073.094.132.115.376.141.38.034.479.077.479.209 0 .295-.679.329-.752.038-.017-.06-.06-.098-.107-.098-.094 0-.103.038-.03.192.073.162.248.235.547.235.235 0 .278-.013.389-.124.265-.265.111-.534-.338-.581-.355-.034-.457-.073-.47-.179-.038-.265.637-.333.701-.073.026.098.188.154.188.064 0-.303-.436-.483-.79-.329zM5.682 18.606c0 .521.009.619.064.619.047 0 .064-.047.064-.167v-.167l.299-.017c.355-.017.513-.115.572-.346.051-.197-.03-.397-.192-.479-.077-.043-.248-.064-.466-.064h-.342v.619zm.697-.444c.124.068.158.12.158.261 0 .205-.132.291-.449.291H5.81v-.598h.239c.128 0 .278.021.329.047zM7.947 18.61c0 .568.004.619.077.607.056-.009.077-.064.085-.218l.013-.201h.179c.162 0 .197.017.372.218.132.145.222.214.273.205.068-.017.056-.047-.09-.235l-.171-.214.12-.073c.167-.094.226-.256.162-.444-.068-.205-.218-.269-.658-.269h-.363v.624zm.739-.448c.179.098.209.244.073.38-.068.068-.141.085-.363.085h-.278v-.513h.239c.128 0 .278.021.329.047zM12.783 18.593c.013.543.021.611.09.624.06.013.073-.017.073-.158v-.175l.226-.004c.342 0 .508-.077.598-.261.103-.205.064-.38-.107-.526-.115-.098-.162-.107-.508-.107h-.384l.013.607zm.782-.371c.128.124.137.291.021.406-.068.068-.141.085-.363.085h-.278v-.598h.256c.218 0 .278.017.363.107zM15.081 18.606v.619h.491c.41 0 .491-.013.491-.064s-.077-.064-.427-.064h-.427v-.47h.384c.312 0 .384-.013.384-.064s-.073-.064-.384-.064h-.384v-.384h.406c.333 0 .406-.013.406-.064s-.081-.064-.47-.064h-.47v.619zM17.303 18.606c0 .59.004.619.085.619.073 0 .085-.03.085-.214v-.214h.205c.188.004.209.017.363.214.098.124.197.214.248.214.111 0 .103-.026-.073-.239l-.15-.188.158-.15c.141-.132.154-.167.132-.308a.5.5 0 0 0-.137-.261c-.098-.081-.158-.094-.517-.094H17.3v.619zm.812-.406a.313.313 0 0 1 .085.188c0 .162-.15.239-.457.239h-.269v-.513h.278c.222 0 .295.017.363.085zM19.439 18.051c0 .051.056.064.256.064h.256v.555c0 .526.004.555.085.555s.085-.03.085-.555v-.555h.256c.201 0 .256-.013.256-.064 0-.056-.094-.064-.598-.064s-.598.009-.598.064zM21.84 18.593c.013.543.021.611.09.624s.073-.038.073-.607c0-.598-.004-.624-.085-.624-.085 0-.085.021-.077.607zM23.37 18.606v.619h.491c.41 0 .491-.013.491-.064s-.077-.064-.427-.064h-.427v-.47h.384c.312 0 .384-.013.384-.064s-.073-.064-.384-.064h-.384v-.384h.406c.333 0 .406-.013.406-.064s-.081-.064-.47-.064h-.47v.619z"/></symbol><symbol id="experience" viewBox="0 0 32 32"><path d="M26.347.509c-.279.273-1.504 1.494-2.721 2.712l-2.213 2.213-.52-.13a22.79 22.79 0 0 0-2.729-.522c-.595-.075-1.272-.095-2.88-.085-1.323.009-1.629.019-2.127.077-1.582.184-3.235.593-4.884 1.21-.636.237-1.174.482-2.367 1.077-.825.412-1.126.573-1.408.754l-.173.111.006 5.842c.004 3.966.012 5.957.023 6.2.041.902.073 1.092.298 1.74l.126.358-4.78 4.782 1.072.194c2.181.396 3.209.591 3.231.613.044.044.251 1.073.589 2.915l.256 1.409c0 .006.725-.713 1.612-1.596 1.975-1.969 2.659-2.63 2.829-2.728l.042-.025.503.352c1.547 1.083 2.829 1.836 4.831 2.837l.687.344.789-.398c.996-.503 1.55-.801 2.308-1.248 3.308-1.944 5.717-4.074 7.1-6.274.449-.713.713-1.32.984-2.253l.095-.33v-5.217l.001-5.217 1.593-1.601c2.805-2.82 3.45-3.489 3.387-3.525-.023-.013-.431-.091-1.905-.364-1.139-.21-2.171-.412-2.254-.44-.041-.013-.047-.023-.067-.113a97.534 97.534 0 0 1-.383-1.969C27.013.667 26.89.048 26.867.023c-.007-.007-.228.197-.522.485zm-9.96 5.148c.86.025 1.547.058 1.849.089.332.034 1.136.183 1.694.314.864.203 1.905.529 2.607.816.547.222 1.332.585 2.175 1.003.689.341.898.453 1.209.648l.216.134v4.298c-.001 4.279-.015 6.488-.044 7.017-.038.715-.092 1.044-.221 1.374-.077.202-.405.874-.553 1.139-1.016 1.82-2.745 3.546-5.198 5.191a31.488 31.488 0 0 1-3.698 2.126c-.538.266-.716.344-.789.344-.175-.001-1.976-.922-2.975-1.523-1.095-.659-2.485-1.604-3.172-2.158-1.525-1.228-2.699-2.532-3.478-3.861-.39-.665-.737-1.538-.813-2.045-.054-.365-.056-.525-.061-6.274l-.006-5.63.165-.102c.231-.143.424-.253.779-.443a50.386 50.386 0 0 1 1.674-.83c1.281-.58 2.913-1.095 4.393-1.383.715-.139 1.424-.235 1.893-.257a54.388 54.388 0 0 1 2.354.015z"/><path d="M15.152 7.121c-.118.237-.216.431-.219.434a3.35 3.35 0 0 1-.272.032c-.491.053-.613.073-.613.107 0 .039.171.222.398.427.189.17.237.221.234.246l-.056.314c-.064.351-.094.577-.08.592.013.013.21-.088.56-.285.127-.07.238-.129.247-.129.01 0 .212.099.449.219.37.189.43.215.422.187-.004-.019-.032-.152-.06-.298-.111-.576-.11-.583.276-.984.101-.107.186-.208.192-.229.023-.091-.023-.107-.474-.167-.18-.023-.332-.047-.339-.051s-.077-.135-.158-.289l-.219-.418-.073-.137-.215.43zM19.918 8.387a5.54 5.54 0 0 0-.17.326l-.118.243-.374.041a7.298 7.298 0 0 0-.383.047c-.003.004.121.134.276.289l.284.284-.047.26a4.14 4.14 0 0 0-.05.342c-.003.076-.001.08.031.076.053-.007.172-.064.403-.193l.213-.118.213.118c.231.129.351.186.403.193.032.004.034 0 .031-.076a3.403 3.403 0 0 0-.05-.342l-.047-.26.284-.284c.155-.155.279-.285.276-.289a7.298 7.298 0 0 0-.383-.047l-.374-.041-.118-.243c-.12-.247-.213-.409-.235-.409a.308.308 0 0 0-.066.083zM10.641 8.423a3.846 3.846 0 0 0-.168.313c-.107.219-.108.221-.164.229-.029.004-.186.023-.346.039a4.228 4.228 0 0 0-.317.041c-.02.009.016.056.187.237.117.124.231.256.251.292.048.082.05.158.004.39a1.178 1.178 0 0 0-.028.227c.004.06.006.063.056.067.039.003.11-.025.319-.127l.268-.133.32.161c.177.089.326.161.33.161.015 0-.006-.168-.054-.465l-.045-.266.259-.27c.231-.24.254-.27.224-.276-.018-.004-.155-.02-.304-.038a19.09 19.09 0 0 1-.326-.038l-.056-.009-.145-.292c-.145-.294-.168-.333-.191-.333a.34.34 0 0 0-.073.091zM18.978 11.543c.006.808.01.844.088.902.034.025.042.026.079.009.069-.034.091-.092.105-.276.016-.19.029-.237.083-.272.031-.02.044-.02.079-.006.066.026.174.14.257.27.134.208.294.323.393.285.072-.026.048-.088-.126-.323-.105-.142-.172-.262-.172-.308 0-.023.026-.067.072-.118a.496.496 0 0 0 .133-.373c0-.153-.037-.269-.102-.326a1.04 1.04 0 0 0-.314-.121 4.517 4.517 0 0 0-.259-.037 12.856 12.856 0 0 1-.268-.039l-.053-.009.004.743zm.535-.382c.076.032.114.073.134.143.015.053.013.073-.01.134-.022.061-.037.077-.092.105-.076.037-.165.05-.222.031-.057-.02-.073-.077-.067-.235.006-.172.023-.2.132-.2.039 0 .095.01.126.022zM11.081 10.862c-.183.066-.374.2-.453.319-.076.114-.094.2-.094.463-.001.294.026.401.13.516.137.152.344.27.525.3.181.031.579-.219.667-.418.063-.143.076-.547.023-.719-.06-.194-.256-.367-.52-.459a.358.358 0 0 0-.278-.001zm.345.315c.142.07.196.205.196.488 0 .183-.028.284-.104.377-.101.126-.336.165-.496.083a.451.451 0 0 1-.164-.19c-.031-.066-.034-.095-.034-.292 0-.212.001-.222.042-.304.075-.151.197-.219.376-.209.07.003.12.016.183.047zM13.534 10.848c-.051.029-.057.066-.028.155l.072.224.247.775c.099.3.183.439.278.458.047.009.162-.009.18-.028.006-.007.054-.142.107-.298l.178-.519c.193-.551.228-.681.199-.737a.062.062 0 0 0-.051-.031c-.105 0-.227.203-.37.621-.114.333-.202.519-.244.519-.01 0-.029-.035-.041-.077a14.44 14.44 0 0 0-.243-.76c-.096-.248-.196-.354-.284-.301zM16.402 11.651v.823l.319-.009c.254-.006.333-.013.398-.034.134-.047.156-.146.045-.221-.039-.026-.07-.034-.148-.034-.248 0-.336-.051-.336-.197 0-.067.007-.088.041-.126.039-.044.045-.045.209-.058.094-.006.186-.019.206-.026.058-.022.104-.088.094-.139-.019-.091-.061-.111-.273-.126-.17-.013-.232-.035-.259-.095-.039-.086-.009-.221.057-.257.018-.009.104-.02.194-.028.186-.012.244-.034.272-.104.026-.061-.001-.113-.08-.151-.051-.025-.101-.029-.398-.035l-.341-.006v.822zM20.592 13.781c-.004.006-.009.801-.009 1.769v1.759h.365v-1.433l.383.003.384.004.082.139.225.387c.395.681.493.826.598.876.061.029.269.032.307.004.023-.018.02-.025-.032-.12a15.032 15.032 0 0 0-.251-.424c-.444-.734-.49-.816-.507-.919-.012-.072.019-.113.145-.193s.225-.181.294-.294c.265-.437.183-1.061-.172-1.305a1.24 1.24 0 0 0-.453-.159c-.215-.037-.269-.042-.729-.067l-.509-.028a.497.497 0 0 0-.12.001zm1.178.399c.067.009.167.029.222.047.323.101.474.526.311.877a.84.84 0 0 1-.326.355l-.086.044-.465.007a9.633 9.633 0 0 1-.472.001c-.01-.012-.006-1.342.006-1.354.013-.015.646.003.81.022zM8.853 13.949a7.42 7.42 0 0 0-.094 1.225c.007.244.02.31.069.33.013.006.237.015.498.022.482.01.523.015.7.077.191.069.325.251.377.515.029.149.016.25-.056.418-.162.379-.368.493-.854.474-.314-.013-.594-.05-.693-.091-.11-.045-.148-.015-.148.12 0 .164.053.202.384.27.272.057.586.072.772.037.278-.053.479-.151.64-.316.221-.222.319-.509.304-.883-.012-.316-.089-.513-.263-.675a1.065 1.065 0 0 0-.447-.224 3.585 3.585 0 0 0-.744-.057l-.208.004v-.365c0-.491.016-.556.153-.624.05-.026.101-.032.344-.042.156-.007.398-.012.535-.012.384 0 .386 0 .386-.209V13.8H8.875l-.025.149zM12.13 13.816c-.015.007-.026.029-.026.048s.06.152.133.295c.174.341.49.943.769 1.466l.151.282v1.4h.439v-1.428l.389-.722c.519-.965.649-1.222.649-1.291 0-.051-.029-.067-.124-.067-.069 0-.099.007-.14.035-.091.061-.216.266-.503.82-.256.493-.462.855-.485.855-.025 0-.232-.36-.458-.789-.338-.646-.462-.842-.573-.9-.045-.023-.183-.026-.219-.004zM15.159 15.554v1.754h1.857v-.351h-1.491v-1.301h1.418v-.351h-1.418V14.15l1.484.001.004-.177.004-.175h-1.858v1.754zM18.607 13.857c-.107.127-.235.415-.645 1.456l-.186.475-.11.285-.094.248c-.034.088-.07.184-.082.212-.066.158-.256.693-.256.718 0 .063.199.082.269.026.083-.066.121-.151.323-.722l.136-.38h1.456l.092.256c.237.655.304.805.384.854.075.044.263.023.263-.028 0-.034-.105-.329-.278-.782-.917-2.405-1.035-2.675-1.177-2.675-.039 0-.058.012-.098.057zm.137.55c.056.101.216.512.376.957.073.205.14.389.149.408l.015.034-.494-.007c-.535-.007-.63-.019-.621-.077.009-.047.162-.497.251-.737.099-.265.193-.525.219-.604.023-.075.054-.066.105.026zM24.194 13.815a1.497 1.497 0 0 0-.446.129 1.283 1.283 0 0 0-.417.412c-.044.085-.05.11-.056.241-.015.332.116.634.351.816.101.076.449.253.67.339.325.127.519.253.611.398.091.14.117.351.058.471a1.434 1.434 0 0 1-.355.361c-.117.056-.898.025-1.172-.048a.985.985 0 0 0-.136-.025c-.048-.001-.051.001-.064.06a.49.49 0 0 0-.003.127c.029.19.216.247.813.248.355.001.452-.009.651-.067a.925.925 0 0 0 .598-.561.823.823 0 0 0-.291-.987 4.137 4.137 0 0 0-.557-.289 4.551 4.551 0 0 1-.363-.159c-.329-.158-.418-.276-.418-.557 0-.254.07-.398.234-.481.137-.069.23-.08.526-.072.251.009.399.029.525.075.099.037.171.031.215-.016.047-.051.073-.14.056-.191-.029-.088-.335-.181-.721-.221a.909.909 0 0 0-.308-.001zM6.717 13.851c-.254.058-.535.189-.653.3-.066.063-.066.076-.003.186.057.098.08.096.304-.015.105-.053.225-.107.265-.118.187-.058.424-.061.593-.01.12.038.203.091.284.18.287.317.175.706-.401 1.393a9.446 9.446 0 0 1-.478.526 7.309 7.309 0 0 0-.548.624c-.161.216-.181.311-.075.36.048.022.164.025 1.104.029l1.048.004v-.352h-.893c-.547 0-.89-.006-.887-.013s.228-.247.501-.531c.901-.933.972-1.026 1.074-1.371.041-.139.056-.415.029-.528-.061-.259-.232-.45-.531-.592a1.024 1.024 0 0 0-.734-.072zM10.905 20.312v.957h.146c.137 0 .151-.003.183-.037.035-.034.037-.042.038-.237.001-.224.015-.348.039-.373a.576.576 0 0 1 .167-.028c.177-.013.345-.061.472-.137.162-.095.224-.2.237-.409a.689.689 0 0 0-.07-.373c-.102-.203-.254-.26-.788-.292-.14-.007-.294-.018-.339-.022l-.085-.009v.959zm.809-.529c.066.028.098.089.098.186 0 .181-.096.253-.341.254-.123.001-.146-.003-.164-.025-.028-.038-.041-.183-.029-.303.015-.143.028-.151.228-.142a.947.947 0 0 1 .208.029zM14.312 20.311v.959h.379l.004-.335c.004-.306.007-.338.032-.365.034-.037.108-.041.167-.01.069.035.172.159.314.377.149.23.228.311.31.327.058.01.228.001.254-.015.025-.016-.006-.067-.257-.443l-.228-.339.113-.121c.143-.156.187-.244.196-.399a.436.436 0 0 0-.142-.374c-.132-.13-.237-.158-.71-.189a18.238 18.238 0 0 1-.332-.022l-.099-.009v.957zm.728-.525c.238.072.251.3.02.395a.85.85 0 0 1-.177.037c-.215.025-.191.053-.191-.228v-.244l.137.01c.075.004.17.019.21.031zM7.378 19.38c-.006.004-.01.433-.01.95v.94h1.111v-.365h-.731v-.422l.3-.004c.288-.004.3-.006.332-.038.029-.028.034-.048.034-.149 0-.089-.006-.121-.025-.142-.034-.032-.139-.045-.377-.047-.266-.001-.263.001-.263-.199v-.154l.363-.003.361-.004v-.365l-.542-.004a7.963 7.963 0 0 0-.551.007zM8.786 19.383c0 .009.077.137.172.284.19.291.291.462.339.57l.031.07-.058.117c-.034.064-.139.237-.234.383s-.194.304-.219.349l-.048.085.039.015a.52.52 0 0 0 .26-.006c.063-.026.161-.137.259-.295l.171-.273.094-.145.031.039c.016.02.092.139.168.26.26.417.282.434.535.434.086 0 .156-.004.156-.009s-.111-.17-.246-.368c-.278-.405-.354-.528-.354-.566 0-.051.153-.317.485-.843.025-.037.039-.075.035-.083-.016-.023-.158-.034-.25-.018-.117.022-.162.069-.316.326-.067.113-.145.23-.17.259l-.048.053-.067-.072a1.737 1.737 0 0 1-.168-.246c-.114-.193-.171-.265-.237-.3-.058-.029-.361-.047-.361-.02zM12.674 20.32v.95h1.096v-.365h-.731v-.424h.268c.285 0 .365-.013.392-.061.02-.037.012-.253-.01-.275-.025-.025-.187-.044-.395-.044-.251 0-.246.004-.251-.196l-.006-.155h.734v-.38h-1.096v.95zM16.149 19.378c-.006.006-.01.434-.01.952v.94h.38l-.003-.947-.004-.946-.177-.004a1.13 1.13 0 0 0-.186.006zM17.187 19.38c-.006.004-.01.433-.01.95v.94h1.111v-.365h-.731v-.422l.298-.004c.368-.006.36-.001.36-.18 0-.076-.007-.129-.02-.146-.025-.035-.126-.048-.374-.05-.266-.001-.263.001-.263-.199v-.154l.363-.003.361-.004v-.365l-.542-.004a7.963 7.963 0 0 0-.551.007zM18.829 20.32v.95h.384l-.01-.231a62.033 62.033 0 0 0-.025-.595 6.351 6.351 0 0 1-.006-.474l.01-.11.028.037c.045.06.365.599.588.993l.21.373.265.004.266.003-.003-.946-.004-.947-.355-.009-.009.107c-.004.058-.012.304-.016.545s-.012.506-.016.588l-.009.151-.253-.428a65.149 65.149 0 0 1-.405-.69l-.155-.263-.243-.004-.243-.003v.95zM22.907 20.32v.95h1.096v-.365h-.731v-.424h.268c.285 0 .365-.013.392-.061.02-.037.012-.253-.01-.275-.025-.025-.187-.044-.395-.044-.251 0-.246.004-.251-.196l-.006-.155h.734v-.38h-1.096v.95zM21.663 19.419a1.22 1.22 0 0 0-.403.241c-.155.152-.209.336-.209.716 0 .342.035.477.158.607.213.225.672.335.956.228.124-.047.187-.127.187-.24 0-.098-.009-.099-.355-.088-.256.009-.303.007-.341-.013a.713.713 0 0 1-.219-.253c-.038-.077-.039-.086-.031-.273.01-.256.045-.37.14-.466.105-.104.174-.12.497-.107.143.006.273.006.291.001a.045.045 0 0 0 .032-.044c0-.019.01-.061.022-.096.038-.108-.01-.145-.287-.212-.192-.047-.311-.047-.439-.001z"/></symbol><symbol id="solver" viewBox="0 0 34 32"><path d="M13.735.424c-1.885.424-3.521 1.125-5.187 2.25-.921.628-2.265 1.812-2.265 2.016 0 .058.234.19.511.278.497.161.541.146 1.213-.438 1.826-1.622 4.413-2.776 7.043-3.171C22.02.307 28.844 5.202 30.173 12.201c.365 1.87.219 4.88-.292 6.502-.102.307.731.716.964.482.248-.248.716-3.098.716-4.413 0-6.59-4.544-12.493-10.915-14.217C18.98.117 15.444.044 13.735.423z"/><path d="M13.881 4.72c0 1.286.073 1.52.395 1.257.132-.117.19-.541.19-1.315 0-1.052-.029-1.154-.292-1.154s-.292.102-.292 1.213z"/><path d="M19.974 3.799c-1.417.424-2.528 2.148-3.375 5.29l-.234.818-1.388-.497a22.938 22.938 0 0 1-2.236-.921 30.396 30.396 0 0 0-1.71-.789C8.05 6.473 5.464 5.362 4.456 4.895c-.643-.292-1.461-.599-1.826-.687C.862 3.813-.365 5.362.351 7.087c.409.964 1.154 1.52 4.223 3.142 1.578.833 1.71.935 1.505 1.154-.321.351-.497 1.315-.351 1.958.102.497.073.628-.248 1.008a1.676 1.676 0 0 0 0 2.133c.365.438.365.453.131.964-.219.438-.219.599-.088 1.067.205.628.409.891 1.344 1.724.365.307.789.877.964 1.242.248.541.643.921 2.119 2.031 1.008.76 2.367 1.637 3.054 1.958l1.242.599 2.674.102c2.966.131 3.536.248 5.231 1.169.57.321 1.14.57 1.257.57.409 0 2.791-1.68 3.755-2.645a21.607 21.607 0 0 0 1.593-1.812c.628-.848 1.563-2.542 1.666-3.025.029-.161-.321-.424-1.213-.877-2.499-1.286-4.793-3.448-6.181-5.816-.672-1.125-1.359-3.098-1.476-4.194-.102-.804-.058-.994.497-2.353.614-1.549.76-2.542.424-2.981-.395-.482-1.607-.672-2.499-.409zm1.578 1.169c.044.073-.19.789-.526 1.563-.584 1.33-.628 1.52-.614 2.674.015 2.426 1.447 5.421 3.77 7.861 1.476 1.549 2.499 2.382 3.828 3.112.511.278.921.555.921.643 0 .073-.321.658-.731 1.286-.877 1.374-2.484 3.01-3.858 3.916l-1.008.672-.672-.409c-1.476-.921-3.244-1.3-6.049-1.286-1.505 0-1.797-.044-2.689-.395-.921-.365-2.44-1.315-3.478-2.163l-.438-.365.555-.015c1.067 0 1.856-.731 1.856-1.71 0-.307.102-.453.424-.599.468-.205.964-1.067.848-1.505-.146-.526.175-.424.497.161.365.643.76.848 1.081.584.307-.263.263-.658-.117-1.286-.687-1.096-.848-2.133-.511-3.273.146-.482.132-.599-.073-.804s-.307-.219-.614-.073c-.351.161-.511.117-1.432-.38C5.494 9.422 2.279 7.624 1.855 7.215c-.599-.584-.76-1.154-.438-1.651.19-.292.307-.336.833-.278.321.044 1.023.278 1.549.511.526.248 2.469 1.096 4.311 1.87 1.856.774 3.726 1.607 4.164 1.826s1.403.614 2.119.877c.731.278 1.344.511 1.374.526.029.029-.102.278-.278.555-.395.658-.292 1.111.263 1.111a.68.68 0 0 0 .599-.336c.511-.804 1.037-2.046 1.476-3.463.57-1.856 1.037-2.776 1.783-3.448.453-.409.672-.497 1.198-.497.365 0 .701.058.745.146zm-11.105 8.431 2.849 1.549v.701c0 .38.044.789.088.921.219.555-.555.234-3.858-1.622-2.309-1.3-2.805-1.695-2.805-2.206 0-.409.365-.906.672-.906.102 0 1.476.701 3.054 1.563zm-1.592 2.513c1.125.628 2.309 1.286 2.645 1.461 1.111.555 1.359 1.476.409 1.476-.818 0-5.494-2.703-5.728-3.302-.073-.205.321-.789.541-.789.058 0 1.023.511 2.133 1.154zm-.702 2.455c.701.395 1.68.891 2.192 1.125.687.336.906.511.906.745 0 .804-.687.848-2.075.117-1.666-.877-2.922-2.163-2.499-2.572.131-.146.102-.161 1.476.584z"/><path d="M19.229 20.632c-.365.526-.073.848.774.848.555 0 .818.088 1.257.438.438.336.599.395.818.278.321-.161.351-.672.088-1.023-.643-.848-2.484-1.184-2.937-.541zM15.898 5.816c-.614.584-.731.774-.599.921.146.146.321.058.833-.395.716-.643.891-.921.687-1.125-.088-.088-.424.117-.921.599zM11.251 5.728c.015.321 1.739 1.768 1.987 1.666.321-.131.234-.278-.716-1.096-.833-.731-1.271-.921-1.271-.57zM2.557 11.426c-.745 3.317-.248 7.218 1.33 10.184 1.987 3.784 5.83 6.692 9.995 7.554 1.476.321 4.325.351 5.626.073 1.184-.248 2.703-.745 2.703-.877 0-.073-.263-.234-.584-.38-.555-.248-.628-.248-1.783.015-1.724.395-4.427.365-6.152-.058-5.026-1.242-9.074-5.421-10.097-10.433-.292-1.417-.307-3.843-.015-5.333.117-.628.219-1.213.219-1.3 0-.146-.599-.497-.877-.497-.058 0-.234.468-.365 1.052z"/></symbol><symbol id="price" viewBox="0 0 32 32"><path d="M14.875.063c-2.762.381-5.144 1.85-6.656 4.094-.362.544-.844 1.456-.844 1.606 0 .181.25.425.438.425.306 0 .363-.056.694-.688a8.632 8.632 0 0 1 4.9-4.144c.931-.306 1.481-.387 2.594-.381 1.538 0 2.656.275 4.006.975.569.294.613.306.781.231a.485.485 0 0 0 .238-.606c-.125-.356-1.844-1.106-3.181-1.387-.712-.15-2.306-.219-2.969-.125zM4.162 2.381c-.206.163-.225.481-.037.65.231.206 1.838 1.094 1.987 1.094.075 0 .213-.069.294-.156.162-.156.194-.337.094-.531-.075-.144-1.875-1.188-2.044-1.188-.069 0-.2.056-.294.131zM26.5 2.781c-.944.55-1.063.65-1.063.888 0 .194.262.456.45.456.163 0 1.738-.869 1.975-1.081.288-.269.075-.794-.325-.794-.069 0-.538.237-1.038.531z"/><path d="M14.781 2.413c-2.281.406-4.194 1.881-5.194 3.994-.412.875-.594 1.631-.631 2.688-.019.506-.006 1.063.037 1.319.162 1.056.631 2.225 1.219 3.05.575.806.781.925 1.125.656.269-.213.219-.431-.213-1.006a6.982 6.982 0 0 1-1.069-2.144c-.188-.706-.231-2.012-.094-2.713.269-1.319.787-2.275 1.75-3.225 1.219-1.2 2.619-1.781 4.287-1.781 1.131 0 2.131.275 3.156.869.681.394 1.7 1.412 2.119 2.112.35.6.688 1.531.794 2.206.1.669.038 1.906-.131 2.531-.569 2.1-2.2 3.738-4.35 4.356-.431.125-.631.144-1.588.144-1.244 0-1.656-.081-2.619-.537-.287-.131-.588-.244-.669-.244-.369 0-.537.537-.256.8s1.425.7 2.25.856c.7.131 1.994.119 2.7-.025a7.194 7.194 0 0 0 4.119-2.512c.531-.656 1.1-1.794 1.331-2.65.156-.575.169-.719.169-1.781 0-1.05-.019-1.213-.169-1.769a7.69 7.69 0 0 0-1.044-2.25c-.356-.525-1.1-1.288-1.656-1.7-.45-.337-1.469-.85-2.031-1.025-1-.313-2.331-.4-3.344-.219z"/><path d="M22.144 2.688a.462.462 0 0 0-.2.181c-.144.263-.081.431.344.894a8.565 8.565 0 0 1 1.994 3.956c.156.731.188 2.113.069 2.875-.363 2.387-1.663 4.45-3.631 5.781a8.328 8.328 0 0 1-4.719 1.438c-4.2 0-7.706-3.031-8.356-7.219-.088-.606-.081-2.019.019-2.669.031-.194.013-.256-.125-.388-.344-.35-.744-.112-.831.5-.094.669-.056 2.438.069 3.056.588 2.969 2.456 5.413 5.131 6.719 1.287.631 2.294.869 3.813.919.894.025 1.181.012 1.813-.094 3.488-.6 6.325-3.05 7.394-6.387.344-1.075.419-1.594.413-2.906 0-.981-.025-1.3-.137-1.825-.35-1.625-1.1-3.131-2.144-4.3-.512-.575-.631-.644-.913-.531z"/><path d="M15.706 4.719c-.106.075-.15.188-.181.456-.037.362-.037.362-.3.438-.875.237-1.481 1.112-1.394 2 .075.719.481 1.244 1.269 1.65l.4.206v2.856l-.231-.044c-.125-.019-.394-.125-.594-.225-.194-.1-.438-.181-.537-.181-.356 0-.544.475-.294.75.175.194.838.5 1.262.581l.381.069.037.319c.037.338.244.594.475.594.063 0 .194-.063.281-.144.125-.106.169-.213.2-.488l.031-.35.325-.113c.225-.081.438-.231.731-.525.519-.519.694-.931.694-1.637.006-.938-.525-1.65-1.475-1.969l-.288-.1v-1.15c0-.881.019-1.15.081-1.15.038 0 .225.069.406.156.375.175.587.156.731-.05.113-.162.119-.412.012-.55-.1-.131-.625-.4-.956-.487l-.256-.069-.044-.375c-.05-.406-.175-.563-.475-.563a.625.625 0 0 0-.294.094zM15.5 7.438c0 .513-.019.938-.037.938-.137 0-.488-.3-.588-.506a.911.911 0 0 1-.025-.85c.094-.188.475-.519.6-.519.031 0 .05.419.05.938zm1.238 2.525c.194.1.4.313.512.531.113.225.087.775-.056 1.056-.125.244-.519.637-.631.637-.038 0-.063-.456-.063-1.156 0-.637.012-1.156.031-1.156a.77.77 0 0 1 .206.088zM3.406 5.781c-.181.175-.2.4-.044.594.112.138 1.237.494 1.581.5a.506.506 0 0 0 .463-.381c.075-.306-.162-.475-.938-.688-.831-.219-.875-.219-1.063-.025zM27.5 5.813c-.744.206-.981.381-.906.681.05.213.256.381.462.381.344-.006 1.469-.362 1.581-.5.156-.194.137-.419-.044-.594-.188-.194-.281-.188-1.094.031zM2.319 9.1c-.15.188-.163.269-.063.488.119.256.325.3 1.45.275.906-.019 1.044-.031 1.163-.137.169-.156.175-.494.006-.662-.119-.119-.206-.125-1.275-.125H2.444l-.125.162zM27.125 9.063c-.169.169-.163.506.006.662.119.106.256.119 1.163.137 1.125.025 1.331-.019 1.45-.275.1-.219.087-.3-.063-.488l-.125-.162H28.4c-1.069 0-1.156.006-1.275.125zM4.188 12.063c-.775.225-.781.231-.869.412-.1.219-.087.294.063.488a.373.373 0 0 0 .313.162c.156 0 .756-.15 1.45-.35.056-.019.15-.119.206-.225.081-.156.081-.219.019-.369-.144-.356-.313-.375-1.181-.119zM26.806 11.938c-.169.1-.256.387-.188.581.075.2.156.238.925.45.744.2.913.2 1.075-.006.15-.188.163-.269.063-.488-.081-.175-.188-.225-.975-.444-.625-.169-.75-.181-.9-.094zM5.063 15.156c-.494.287-.938.575-.981.631-.206.287.006.713.35.713.213 0 1.769-.863 1.994-1.106a.542.542 0 0 0 .138-.306c0-.194-.263-.463-.45-.463-.081 0-.55.238-1.05.531zM25.594 14.781c-.194.188-.2.419-.012.613.219.244 1.775 1.106 1.988 1.106.369 0 .569-.456.325-.738-.156-.181-1.85-1.137-2.012-1.137-.075 0-.206.069-.288.156zM8.338 20.756c-.256.131-.275.288-.275 2.394 0 1.962.006 2.025.131 2.188l.131.169 1.019-.019c1-.019 1.012-.019 1.319-.206.769-.475.938-1.538.356-2.212-.213-.25-.213-.25-.106-.45.075-.144.094-.313.075-.619-.025-.519-.225-.85-.656-1.106-.275-.156-.35-.175-1.081-.188-.475-.012-.831.006-.912.05zm1.493.938c.188.1.231.175.231.413 0 .288-.188.394-.669.394h-.394v-.875h.35c.188 0 .406.031.481.069zm.425 1.925c.194.194.231.419.106.65-.131.25-.25.288-.813.294h-.55v-1.125h.537c.506 0 .544.006.719.181zM12.938 20.731a.69.69 0 0 0-.2.131c-.106.087-.113.275-.113 2.244 0 2.063.006 2.15.125 2.269.113.113.206.125 1.15.125h1.031l.125-.163c.169-.219.162-.356-.019-.569-.144-.169-.175-.175-.813-.194l-.662-.025v-.988h.619c.6 0 .625-.006.75-.163.15-.194.162-.269.063-.488-.1-.212-.35-.288-.938-.288h-.494v-1h.681c.662 0 .688-.006.813-.163.075-.094.131-.206.131-.25 0-.163-.144-.387-.294-.456s-1.775-.087-1.956-.025zM17.613 20.775c-.456.125-.762.363-.95.731-.194.4-.206.738-.038 1.094.169.337.444.519 1.244.831.95.369 1.156.631.75.969-.156.131-.256.163-.531.163-.35 0-.581-.094-1.019-.406-.256-.188-.375-.194-.594-.025-.569.444.337 1.294 1.462 1.356.8.044 1.363-.231 1.65-.813.206-.419.206-.744 0-1.163-.206-.413-.5-.619-1.356-.95-.75-.288-.844-.369-.756-.613.125-.363.831-.394 1.3-.056.525.369 1.106-.113.719-.606-.169-.212-.613-.438-1.044-.531-.4-.081-.462-.081-.837.019zM21.188 20.731c-.194.075-.313.231-.313.425 0 .337.125.431.606.469l.425.031.031 1.831c.031 1.725.038 1.837.15 1.925.181.131.5.113.637-.044.113-.125.119-.262.137-1.938l.019-1.806h.4c.356 0 .413-.019.525-.163.075-.094.131-.206.131-.25 0-.163-.144-.387-.294-.456s-2.275-.094-2.456-.025zM6.925 27.256c-.063.031-.138.163-.175.294-.081.313-.081 3.887 0 4.113.125.325.463.438.719.238.112-.081.131-.188.156-.919l.031-.825.5-.038c.581-.038.863-.144 1.144-.431.325-.325.412-.544.412-1.031 0-.5-.088-.719-.438-1.056-.331-.319-.669-.413-1.519-.413-.4 0-.775.031-.831.069zm1.706 1.05c.238.238.238.462 0 .7-.169.163-.225.181-.594.181h-.412v-1.063h.412c.369 0 .425.019.594.181zM11.125 27.313c-.119.119-.125.206-.125 2.269v2.15l.144.131c.225.213.588.162.706-.094.025-.063.063-.387.081-.719l.037-.6.625.719c.344.394.675.744.731.775.287.156.675-.075.675-.406 0-.163-.1-.313-.544-.819-.331-.369-.519-.625-.469-.644.044-.012.213-.113.375-.225.994-.688.781-2.169-.369-2.569-.175-.063-.512-.094-1-.094-.662 0-.756.012-.869.125zm1.744.975c.144.119.194.212.194.369 0 .331-.287.531-.756.531h-.369v-1.063h.369c.306 0 .406.025.563.163zM15.387 27.331c-.137.144-.137.175-.137 2.275v2.137l.162.125a.602.602 0 0 0 .313.131c.175 0 .381-.188.431-.387.019-.081.031-1.056.019-2.163l-.019-2.025-.15-.119c-.2-.163-.456-.15-.619.025zM19.038 27.313c-.887.319-1.438.962-1.606 1.894-.188 1.025.381 2.1 1.369 2.563.375.175.481.2.981.2.488 0 .606-.025.919-.175.356-.175.8-.594.8-.762 0-.262-.269-.531-.531-.531-.05 0-.188.087-.306.188-.419.375-.837.456-1.369.275-.519-.175-.981-.831-.981-1.387 0-.288.2-.756.419-.981.469-.481 1.087-.594 1.694-.313.5.231.769.188.894-.137.106-.288-.031-.494-.488-.719a2.451 2.451 0 0 0-1.794-.113zM22.869 27.306l-.15.119-.019 2.025c-.012 1.106 0 2.081.019 2.163a.673.673 0 0 0 .156.262c.113.113.212.125 1.113.125.906 0 1-.012 1.125-.125.087-.087.137-.206.137-.344s-.05-.256-.137-.344c-.119-.113-.219-.125-.813-.125h-.675v-1h.613c.65-.006.775-.05.881-.319.069-.188-.05-.519-.212-.581-.056-.019-.369-.038-.694-.038h-.587v-1h.65c.556 0 .669-.019.813-.131a.468.468 0 0 0 .038-.681c-.113-.113-.206-.125-1.119-.125-.881 0-1.006.012-1.137.119z"/></symbol><symbol id="mail" viewBox="0 0 43 32"><path d="M38.667 0H4C1.794 0 0 1.794 0 4v24c0 2.206 1.794 4 4 4h34.667c2.206 0 4-1.794 4-4V4c0-2.206-1.794-4-4-4zm0 2.667c.181 0 .353.038.511.103L21.334 18.236 3.49 2.77a1.32 1.32 0 0 1 .511-.103h34.667zm0 26.666H4A1.334 1.334 0 0 1 2.667 28V5.587L20.46 21.008a1.335 1.335 0 0 0 1.748 0L40.001 5.587V28c0 .736-.598 1.333-1.333 1.333z"/></symbol></defs></svg>